G04 #@! TF.GenerationSoftware,KiCad,Pcbnew,(5.0.1)-3*
G04 #@! TF.CreationDate,2019-08-04T12:29:00-04:00*
G04 #@! TF.ProjectId,Dice_roller,446963655F726F6C6C65722E6B696361,rev?*
G04 #@! TF.SameCoordinates,Original*
G04 #@! TF.FileFunction,Legend,Top*
G04 #@! TF.FilePolarity,Positive*
%FSLAX46Y46*%
G04 Gerber Fmt 4.6, Leading zero omitted, Abs format (unit mm)*
G04 Created by KiCad (PCBNEW (5.0.1)-3) date 8/4/2019 12:29:00 PM*
%MOMM*%
%LPD*%
G01*
G04 APERTURE LIST*
%ADD10C,0.200000*%
%ADD11C,0.120000*%
%ADD12C,0.150000*%
G04 APERTURE END LIST*
D10*
X115500000Y-57500000D02*
X133500000Y-57500000D01*
X115500000Y-101000000D02*
X115500000Y-57500000D01*
X133500000Y-101000000D02*
X115500000Y-101000000D01*
X133500000Y-57500000D02*
X133500000Y-101000000D01*
D11*
G04 #@! TO.C,J1*
X130670000Y-62710000D02*
X133330000Y-62710000D01*
X130670000Y-62710000D02*
X130670000Y-98330000D01*
X130670000Y-98330000D02*
X133330000Y-98330000D01*
X133330000Y-62710000D02*
X133330000Y-98330000D01*
X133330000Y-60110000D02*
X133330000Y-61440000D01*
X132000000Y-60110000D02*
X133330000Y-60110000D01*
G04 #@! TO.C,J2*
X115430000Y-62710000D02*
X118090000Y-62710000D01*
X115430000Y-62710000D02*
X115430000Y-98330000D01*
X115430000Y-98330000D02*
X118090000Y-98330000D01*
X118090000Y-62710000D02*
X118090000Y-98330000D01*
X118090000Y-60110000D02*
X118090000Y-61440000D01*
X116760000Y-60110000D02*
X118090000Y-60110000D01*
G04 #@! TO.C,R1*
X157081829Y-94876944D02*
X157081829Y-94354440D01*
X158501829Y-94876944D02*
X158501829Y-94354440D01*
G04 #@! TO.C,R2*
X148530577Y-88905692D02*
X149053081Y-88905692D01*
X148530577Y-90325692D02*
X149053081Y-90325692D01*
G04 #@! TO.C,R3*
X142738748Y-88790000D02*
X143261252Y-88790000D01*
X142738748Y-90210000D02*
X143261252Y-90210000D01*
G04 #@! TO.C,R4*
X153053081Y-98905692D02*
X152530577Y-98905692D01*
X153053081Y-100325692D02*
X152530577Y-100325692D01*
G04 #@! TO.C,R5*
X154581829Y-110376944D02*
X154581829Y-109854440D01*
X156001829Y-110376944D02*
X156001829Y-109854440D01*
G04 #@! TO.C,R6*
X150501829Y-110376944D02*
X150501829Y-109854440D01*
X149081829Y-110376944D02*
X149081829Y-109854440D01*
G04 #@! TO.C,R7*
X145001829Y-110376944D02*
X145001829Y-109854440D01*
X143581829Y-110376944D02*
X143581829Y-109854440D01*
G04 #@! TO.C,D1*
X155734164Y-92442085D02*
G75*
G03X152501829Y-92285177I-1672335J-1078608D01*
G01*
X155734164Y-94599301D02*
G75*
G02X152501829Y-94756209I-1672335J1078608D01*
G01*
X155102959Y-92440856D02*
G75*
G03X153020868Y-92440693I-1041130J-1079837D01*
G01*
X155102959Y-94600530D02*
G75*
G02X153020868Y-94600693I-1041130J1079837D01*
G01*
X152501829Y-92284693D02*
X152501829Y-92440693D01*
X152501829Y-94600693D02*
X152501829Y-94756693D01*
G04 #@! TO.C,D2*
X147001829Y-94600693D02*
X147001829Y-94756693D01*
X147001829Y-92284693D02*
X147001829Y-92440693D01*
X149602959Y-94600530D02*
G75*
G02X147520868Y-94600693I-1041130J1079837D01*
G01*
X149602959Y-92440856D02*
G75*
G03X147520868Y-92440693I-1041130J-1079837D01*
G01*
X150234164Y-94599301D02*
G75*
G02X147001829Y-94756209I-1672335J1078608D01*
G01*
X150234164Y-92442085D02*
G75*
G03X147001829Y-92285177I-1672335J-1078608D01*
G01*
G04 #@! TO.C,D3*
X141501829Y-94600693D02*
X141501829Y-94756693D01*
X141501829Y-92284693D02*
X141501829Y-92440693D01*
X144102959Y-94600530D02*
G75*
G02X142020868Y-94600693I-1041130J1079837D01*
G01*
X144102959Y-92440856D02*
G75*
G03X142020868Y-92440693I-1041130J-1079837D01*
G01*
X144734164Y-94599301D02*
G75*
G02X141501829Y-94756209I-1672335J1078608D01*
G01*
X144734164Y-92442085D02*
G75*
G03X141501829Y-92285177I-1672335J-1078608D01*
G01*
G04 #@! TO.C,D4*
X150234164Y-98537084D02*
G75*
G03X147001829Y-98380176I-1672335J-1078608D01*
G01*
X150234164Y-100694300D02*
G75*
G02X147001829Y-100851208I-1672335J1078608D01*
G01*
X149602959Y-98535855D02*
G75*
G03X147520868Y-98535692I-1041130J-1079837D01*
G01*
X149602959Y-100695529D02*
G75*
G02X147520868Y-100695692I-1041130J1079837D01*
G01*
X147001829Y-98379692D02*
X147001829Y-98535692D01*
X147001829Y-100695692D02*
X147001829Y-100851692D01*
G04 #@! TO.C,D5*
X152501829Y-106695692D02*
X152501829Y-106851692D01*
X152501829Y-104379692D02*
X152501829Y-104535692D01*
X155102959Y-106695529D02*
G75*
G02X153020868Y-106695692I-1041130J1079837D01*
G01*
X155102959Y-104535855D02*
G75*
G03X153020868Y-104535692I-1041130J-1079837D01*
G01*
X155734164Y-106694300D02*
G75*
G02X152501829Y-106851208I-1672335J1078608D01*
G01*
X155734164Y-104537084D02*
G75*
G03X152501829Y-104380176I-1672335J-1078608D01*
G01*
G04 #@! TO.C,D6*
X150234164Y-104537084D02*
G75*
G03X147001829Y-104380176I-1672335J-1078608D01*
G01*
X150234164Y-106694300D02*
G75*
G02X147001829Y-106851208I-1672335J1078608D01*
G01*
X149602959Y-104535855D02*
G75*
G03X147520868Y-104535692I-1041130J-1079837D01*
G01*
X149602959Y-106695529D02*
G75*
G02X147520868Y-106695692I-1041130J1079837D01*
G01*
X147001829Y-104379692D02*
X147001829Y-104535692D01*
X147001829Y-106695692D02*
X147001829Y-106851692D01*
G04 #@! TO.C,D7*
X144734164Y-104537084D02*
G75*
G03X141501829Y-104380176I-1672335J-1078608D01*
G01*
X144734164Y-106694300D02*
G75*
G02X141501829Y-106851208I-1672335J1078608D01*
G01*
X144102959Y-104535855D02*
G75*
G03X142020868Y-104535692I-1041130J-1079837D01*
G01*
X144102959Y-106695529D02*
G75*
G02X142020868Y-106695692I-1041130J1079837D01*
G01*
X141501829Y-104379692D02*
X141501829Y-104535692D01*
X141501829Y-106695692D02*
X141501829Y-106851692D01*
G04 #@! TO.C,D8*
X155942335Y-64921392D02*
G75*
G03X152710000Y-64764484I-1672335J-1078608D01*
G01*
X155942335Y-67078608D02*
G75*
G02X152710000Y-67235516I-1672335J1078608D01*
G01*
X155311130Y-64920163D02*
G75*
G03X153229039Y-64920000I-1041130J-1079837D01*
G01*
X155311130Y-67079837D02*
G75*
G02X153229039Y-67080000I-1041130J1079837D01*
G01*
X152710000Y-64764000D02*
X152710000Y-64920000D01*
X152710000Y-67080000D02*
X152710000Y-67236000D01*
G04 #@! TO.C,D9*
X150442335Y-64921392D02*
G75*
G03X147210000Y-64764484I-1672335J-1078608D01*
G01*
X150442335Y-67078608D02*
G75*
G02X147210000Y-67235516I-1672335J1078608D01*
G01*
X149811130Y-64920163D02*
G75*
G03X147729039Y-64920000I-1041130J-1079837D01*
G01*
X149811130Y-67079837D02*
G75*
G02X147729039Y-67080000I-1041130J1079837D01*
G01*
X147210000Y-64764000D02*
X147210000Y-64920000D01*
X147210000Y-67080000D02*
X147210000Y-67236000D01*
G04 #@! TO.C,D10*
X141710000Y-67080000D02*
X141710000Y-67236000D01*
X141710000Y-64764000D02*
X141710000Y-64920000D01*
X144311130Y-67079837D02*
G75*
G02X142229039Y-67080000I-1041130J1079837D01*
G01*
X144311130Y-64920163D02*
G75*
G03X142229039Y-64920000I-1041130J-1079837D01*
G01*
X144942335Y-67078608D02*
G75*
G02X141710000Y-67235516I-1672335J1078608D01*
G01*
X144942335Y-64921392D02*
G75*
G03X141710000Y-64764484I-1672335J-1078608D01*
G01*
G04 #@! TO.C,D11*
X150442335Y-70921392D02*
G75*
G03X147210000Y-70764484I-1672335J-1078608D01*
G01*
X150442335Y-73078608D02*
G75*
G02X147210000Y-73235516I-1672335J1078608D01*
G01*
X149811130Y-70920163D02*
G75*
G03X147729039Y-70920000I-1041130J-1079837D01*
G01*
X149811130Y-73079837D02*
G75*
G02X147729039Y-73080000I-1041130J1079837D01*
G01*
X147210000Y-70764000D02*
X147210000Y-70920000D01*
X147210000Y-73080000D02*
X147210000Y-73236000D01*
G04 #@! TO.C,D12*
X152710000Y-79080000D02*
X152710000Y-79236000D01*
X152710000Y-76764000D02*
X152710000Y-76920000D01*
X155311130Y-79079837D02*
G75*
G02X153229039Y-79080000I-1041130J1079837D01*
G01*
X155311130Y-76920163D02*
G75*
G03X153229039Y-76920000I-1041130J-1079837D01*
G01*
X155942335Y-79078608D02*
G75*
G02X152710000Y-79235516I-1672335J1078608D01*
G01*
X155942335Y-76921392D02*
G75*
G03X152710000Y-76764484I-1672335J-1078608D01*
G01*
G04 #@! TO.C,D13*
X147210000Y-79080000D02*
X147210000Y-79236000D01*
X147210000Y-76764000D02*
X147210000Y-76920000D01*
X149811130Y-79079837D02*
G75*
G02X147729039Y-79080000I-1041130J1079837D01*
G01*
X149811130Y-76920163D02*
G75*
G03X147729039Y-76920000I-1041130J-1079837D01*
G01*
X150442335Y-79078608D02*
G75*
G02X147210000Y-79235516I-1672335J1078608D01*
G01*
X150442335Y-76921392D02*
G75*
G03X147210000Y-76764484I-1672335J-1078608D01*
G01*
G04 #@! TO.C,D14*
X144942335Y-76921392D02*
G75*
G03X141710000Y-76764484I-1672335J-1078608D01*
G01*
X144942335Y-79078608D02*
G75*
G02X141710000Y-79235516I-1672335J1078608D01*
G01*
X144311130Y-76920163D02*
G75*
G03X142229039Y-76920000I-1041130J-1079837D01*
G01*
X144311130Y-79079837D02*
G75*
G02X142229039Y-79080000I-1041130J1079837D01*
G01*
X141710000Y-76764000D02*
X141710000Y-76920000D01*
X141710000Y-79080000D02*
X141710000Y-79236000D01*
G04 #@! TO.C,R8*
X158710000Y-64738748D02*
X158710000Y-65261252D01*
X157290000Y-64738748D02*
X157290000Y-65261252D01*
G04 #@! TO.C,R9*
X148738748Y-63210000D02*
X149261252Y-63210000D01*
X148738748Y-61790000D02*
X149261252Y-61790000D01*
G04 #@! TO.C,R10*
X143238748Y-63210000D02*
X143761252Y-63210000D01*
X143238748Y-61790000D02*
X143761252Y-61790000D01*
G04 #@! TO.C,R11*
X153761252Y-72710000D02*
X153238748Y-72710000D01*
X153761252Y-71290000D02*
X153238748Y-71290000D01*
G04 #@! TO.C,R12*
X157290000Y-77238748D02*
X157290000Y-77761252D01*
X158710000Y-77238748D02*
X158710000Y-77761252D01*
G04 #@! TO.C,R13*
X148738748Y-80790000D02*
X149261252Y-80790000D01*
X148738748Y-82210000D02*
X149261252Y-82210000D01*
G04 #@! TO.C,R14*
X143761252Y-82710000D02*
X143238748Y-82710000D01*
X143761252Y-81290000D02*
X143238748Y-81290000D01*
G04 #@! TO.C,SW1*
X120000000Y-116500000D02*
X124500000Y-116500000D01*
X118750000Y-112500000D02*
X118750000Y-114000000D01*
X124500000Y-110000000D02*
X120000000Y-110000000D01*
X125750000Y-114000000D02*
X125750000Y-112500000D01*
G04 #@! TO.C,R15*
X121738748Y-106290000D02*
X122261252Y-106290000D01*
X121738748Y-107710000D02*
X122261252Y-107710000D01*
G04 #@! TO.C,J1*
D12*
X131666666Y-58122380D02*
X131666666Y-58836666D01*
X131619047Y-58979523D01*
X131523809Y-59074761D01*
X131380952Y-59122380D01*
X131285714Y-59122380D01*
X132666666Y-59122380D02*
X132095238Y-59122380D01*
X132380952Y-59122380D02*
X132380952Y-58122380D01*
X132285714Y-58265238D01*
X132190476Y-58360476D01*
X132095238Y-58408095D01*
G04 #@! TO.C,J2*
X116426666Y-58122380D02*
X116426666Y-58836666D01*
X116379047Y-58979523D01*
X116283809Y-59074761D01*
X116140952Y-59122380D01*
X116045714Y-59122380D01*
X116855238Y-58217619D02*
X116902857Y-58170000D01*
X116998095Y-58122380D01*
X117236190Y-58122380D01*
X117331428Y-58170000D01*
X117379047Y-58217619D01*
X117426666Y-58312857D01*
X117426666Y-58408095D01*
X117379047Y-58550952D01*
X116807619Y-59122380D01*
X117426666Y-59122380D01*
G04 #@! TO.C,R1*
X156594209Y-94782358D02*
X156118019Y-95115692D01*
X156594209Y-95353787D02*
X155594209Y-95353787D01*
X155594209Y-94972834D01*
X155641829Y-94877596D01*
X155689448Y-94829977D01*
X155784686Y-94782358D01*
X155927543Y-94782358D01*
X156022781Y-94829977D01*
X156070400Y-94877596D01*
X156118019Y-94972834D01*
X156118019Y-95353787D01*
X156594209Y-93829977D02*
X156594209Y-94401406D01*
X156594209Y-94115692D02*
X155594209Y-94115692D01*
X155737067Y-94210930D01*
X155832305Y-94306168D01*
X155879924Y-94401406D01*
G04 #@! TO.C,R2*
X148625162Y-88418072D02*
X148291829Y-87941882D01*
X148053733Y-88418072D02*
X148053733Y-87418072D01*
X148434686Y-87418072D01*
X148529924Y-87465692D01*
X148577543Y-87513311D01*
X148625162Y-87608549D01*
X148625162Y-87751406D01*
X148577543Y-87846644D01*
X148529924Y-87894263D01*
X148434686Y-87941882D01*
X148053733Y-87941882D01*
X149006114Y-87513311D02*
X149053733Y-87465692D01*
X149148971Y-87418072D01*
X149387067Y-87418072D01*
X149482305Y-87465692D01*
X149529924Y-87513311D01*
X149577543Y-87608549D01*
X149577543Y-87703787D01*
X149529924Y-87846644D01*
X148958495Y-88418072D01*
X149577543Y-88418072D01*
G04 #@! TO.C,R3*
X142833333Y-88302380D02*
X142500000Y-87826190D01*
X142261904Y-88302380D02*
X142261904Y-87302380D01*
X142642857Y-87302380D01*
X142738095Y-87350000D01*
X142785714Y-87397619D01*
X142833333Y-87492857D01*
X142833333Y-87635714D01*
X142785714Y-87730952D01*
X142738095Y-87778571D01*
X142642857Y-87826190D01*
X142261904Y-87826190D01*
X143166666Y-87302380D02*
X143785714Y-87302380D01*
X143452380Y-87683333D01*
X143595238Y-87683333D01*
X143690476Y-87730952D01*
X143738095Y-87778571D01*
X143785714Y-87873809D01*
X143785714Y-88111904D01*
X143738095Y-88207142D01*
X143690476Y-88254761D01*
X143595238Y-88302380D01*
X143309523Y-88302380D01*
X143214285Y-88254761D01*
X143166666Y-88207142D01*
G04 #@! TO.C,R4*
X152625162Y-101718072D02*
X152291829Y-101241882D01*
X152053733Y-101718072D02*
X152053733Y-100718072D01*
X152434686Y-100718072D01*
X152529924Y-100765692D01*
X152577543Y-100813311D01*
X152625162Y-100908549D01*
X152625162Y-101051406D01*
X152577543Y-101146644D01*
X152529924Y-101194263D01*
X152434686Y-101241882D01*
X152053733Y-101241882D01*
X153482305Y-101051406D02*
X153482305Y-101718072D01*
X153244209Y-100670453D02*
X153006114Y-101384739D01*
X153625162Y-101384739D01*
G04 #@! TO.C,R5*
X154094209Y-110282358D02*
X153618019Y-110615692D01*
X154094209Y-110853787D02*
X153094209Y-110853787D01*
X153094209Y-110472834D01*
X153141829Y-110377596D01*
X153189448Y-110329977D01*
X153284686Y-110282358D01*
X153427543Y-110282358D01*
X153522781Y-110329977D01*
X153570400Y-110377596D01*
X153618019Y-110472834D01*
X153618019Y-110853787D01*
X153094209Y-109377596D02*
X153094209Y-109853787D01*
X153570400Y-109901406D01*
X153522781Y-109853787D01*
X153475162Y-109758549D01*
X153475162Y-109520453D01*
X153522781Y-109425215D01*
X153570400Y-109377596D01*
X153665638Y-109329977D01*
X153903733Y-109329977D01*
X153998971Y-109377596D01*
X154046590Y-109425215D01*
X154094209Y-109520453D01*
X154094209Y-109758549D01*
X154046590Y-109853787D01*
X153998971Y-109901406D01*
G04 #@! TO.C,R6*
X148594209Y-110282358D02*
X148118019Y-110615692D01*
X148594209Y-110853787D02*
X147594209Y-110853787D01*
X147594209Y-110472834D01*
X147641829Y-110377596D01*
X147689448Y-110329977D01*
X147784686Y-110282358D01*
X147927543Y-110282358D01*
X148022781Y-110329977D01*
X148070400Y-110377596D01*
X148118019Y-110472834D01*
X148118019Y-110853787D01*
X147594209Y-109425215D02*
X147594209Y-109615692D01*
X147641829Y-109710930D01*
X147689448Y-109758549D01*
X147832305Y-109853787D01*
X148022781Y-109901406D01*
X148403733Y-109901406D01*
X148498971Y-109853787D01*
X148546590Y-109806168D01*
X148594209Y-109710930D01*
X148594209Y-109520453D01*
X148546590Y-109425215D01*
X148498971Y-109377596D01*
X148403733Y-109329977D01*
X148165638Y-109329977D01*
X148070400Y-109377596D01*
X148022781Y-109425215D01*
X147975162Y-109520453D01*
X147975162Y-109710930D01*
X148022781Y-109806168D01*
X148070400Y-109853787D01*
X148165638Y-109901406D01*
G04 #@! TO.C,R7*
X143094209Y-110282358D02*
X142618019Y-110615692D01*
X143094209Y-110853787D02*
X142094209Y-110853787D01*
X142094209Y-110472834D01*
X142141829Y-110377596D01*
X142189448Y-110329977D01*
X142284686Y-110282358D01*
X142427543Y-110282358D01*
X142522781Y-110329977D01*
X142570400Y-110377596D01*
X142618019Y-110472834D01*
X142618019Y-110853787D01*
X142094209Y-109949025D02*
X142094209Y-109282358D01*
X143094209Y-109710930D01*
G04 #@! TO.C,D1*
X153323733Y-91013073D02*
X153323733Y-90013073D01*
X153561829Y-90013073D01*
X153704686Y-90060693D01*
X153799924Y-90155931D01*
X153847543Y-90251169D01*
X153895162Y-90441645D01*
X153895162Y-90584502D01*
X153847543Y-90774978D01*
X153799924Y-90870216D01*
X153704686Y-90965454D01*
X153561829Y-91013073D01*
X153323733Y-91013073D01*
X154847543Y-91013073D02*
X154276114Y-91013073D01*
X154561829Y-91013073D02*
X154561829Y-90013073D01*
X154466590Y-90155931D01*
X154371352Y-90251169D01*
X154276114Y-90298788D01*
G04 #@! TO.C,D2*
X147823733Y-91013073D02*
X147823733Y-90013073D01*
X148061829Y-90013073D01*
X148204686Y-90060693D01*
X148299924Y-90155931D01*
X148347543Y-90251169D01*
X148395162Y-90441645D01*
X148395162Y-90584502D01*
X148347543Y-90774978D01*
X148299924Y-90870216D01*
X148204686Y-90965454D01*
X148061829Y-91013073D01*
X147823733Y-91013073D01*
X148776114Y-90108312D02*
X148823733Y-90060693D01*
X148918971Y-90013073D01*
X149157067Y-90013073D01*
X149252305Y-90060693D01*
X149299924Y-90108312D01*
X149347543Y-90203550D01*
X149347543Y-90298788D01*
X149299924Y-90441645D01*
X148728495Y-91013073D01*
X149347543Y-91013073D01*
G04 #@! TO.C,D3*
X142323733Y-91013073D02*
X142323733Y-90013073D01*
X142561829Y-90013073D01*
X142704686Y-90060693D01*
X142799924Y-90155931D01*
X142847543Y-90251169D01*
X142895162Y-90441645D01*
X142895162Y-90584502D01*
X142847543Y-90774978D01*
X142799924Y-90870216D01*
X142704686Y-90965454D01*
X142561829Y-91013073D01*
X142323733Y-91013073D01*
X143228495Y-90013073D02*
X143847543Y-90013073D01*
X143514209Y-90394026D01*
X143657067Y-90394026D01*
X143752305Y-90441645D01*
X143799924Y-90489264D01*
X143847543Y-90584502D01*
X143847543Y-90822597D01*
X143799924Y-90917835D01*
X143752305Y-90965454D01*
X143657067Y-91013073D01*
X143371352Y-91013073D01*
X143276114Y-90965454D01*
X143228495Y-90917835D01*
G04 #@! TO.C,D4*
X147823733Y-97108072D02*
X147823733Y-96108072D01*
X148061829Y-96108072D01*
X148204686Y-96155692D01*
X148299924Y-96250930D01*
X148347543Y-96346168D01*
X148395162Y-96536644D01*
X148395162Y-96679501D01*
X148347543Y-96869977D01*
X148299924Y-96965215D01*
X148204686Y-97060453D01*
X148061829Y-97108072D01*
X147823733Y-97108072D01*
X149252305Y-96441406D02*
X149252305Y-97108072D01*
X149014209Y-96060453D02*
X148776114Y-96774739D01*
X149395162Y-96774739D01*
G04 #@! TO.C,D5*
X153323733Y-103108072D02*
X153323733Y-102108072D01*
X153561829Y-102108072D01*
X153704686Y-102155692D01*
X153799924Y-102250930D01*
X153847543Y-102346168D01*
X153895162Y-102536644D01*
X153895162Y-102679501D01*
X153847543Y-102869977D01*
X153799924Y-102965215D01*
X153704686Y-103060453D01*
X153561829Y-103108072D01*
X153323733Y-103108072D01*
X154799924Y-102108072D02*
X154323733Y-102108072D01*
X154276114Y-102584263D01*
X154323733Y-102536644D01*
X154418971Y-102489025D01*
X154657067Y-102489025D01*
X154752305Y-102536644D01*
X154799924Y-102584263D01*
X154847543Y-102679501D01*
X154847543Y-102917596D01*
X154799924Y-103012834D01*
X154752305Y-103060453D01*
X154657067Y-103108072D01*
X154418971Y-103108072D01*
X154323733Y-103060453D01*
X154276114Y-103012834D01*
G04 #@! TO.C,D6*
X147823733Y-103108072D02*
X147823733Y-102108072D01*
X148061829Y-102108072D01*
X148204686Y-102155692D01*
X148299924Y-102250930D01*
X148347543Y-102346168D01*
X148395162Y-102536644D01*
X148395162Y-102679501D01*
X148347543Y-102869977D01*
X148299924Y-102965215D01*
X148204686Y-103060453D01*
X148061829Y-103108072D01*
X147823733Y-103108072D01*
X149252305Y-102108072D02*
X149061829Y-102108072D01*
X148966590Y-102155692D01*
X148918971Y-102203311D01*
X148823733Y-102346168D01*
X148776114Y-102536644D01*
X148776114Y-102917596D01*
X148823733Y-103012834D01*
X148871352Y-103060453D01*
X148966590Y-103108072D01*
X149157067Y-103108072D01*
X149252305Y-103060453D01*
X149299924Y-103012834D01*
X149347543Y-102917596D01*
X149347543Y-102679501D01*
X149299924Y-102584263D01*
X149252305Y-102536644D01*
X149157067Y-102489025D01*
X148966590Y-102489025D01*
X148871352Y-102536644D01*
X148823733Y-102584263D01*
X148776114Y-102679501D01*
G04 #@! TO.C,D7*
X142323733Y-103108072D02*
X142323733Y-102108072D01*
X142561829Y-102108072D01*
X142704686Y-102155692D01*
X142799924Y-102250930D01*
X142847543Y-102346168D01*
X142895162Y-102536644D01*
X142895162Y-102679501D01*
X142847543Y-102869977D01*
X142799924Y-102965215D01*
X142704686Y-103060453D01*
X142561829Y-103108072D01*
X142323733Y-103108072D01*
X143228495Y-102108072D02*
X143895162Y-102108072D01*
X143466590Y-103108072D01*
G04 #@! TO.C,D8*
X153531904Y-63492380D02*
X153531904Y-62492380D01*
X153770000Y-62492380D01*
X153912857Y-62540000D01*
X154008095Y-62635238D01*
X154055714Y-62730476D01*
X154103333Y-62920952D01*
X154103333Y-63063809D01*
X154055714Y-63254285D01*
X154008095Y-63349523D01*
X153912857Y-63444761D01*
X153770000Y-63492380D01*
X153531904Y-63492380D01*
X154674761Y-62920952D02*
X154579523Y-62873333D01*
X154531904Y-62825714D01*
X154484285Y-62730476D01*
X154484285Y-62682857D01*
X154531904Y-62587619D01*
X154579523Y-62540000D01*
X154674761Y-62492380D01*
X154865238Y-62492380D01*
X154960476Y-62540000D01*
X155008095Y-62587619D01*
X155055714Y-62682857D01*
X155055714Y-62730476D01*
X155008095Y-62825714D01*
X154960476Y-62873333D01*
X154865238Y-62920952D01*
X154674761Y-62920952D01*
X154579523Y-62968571D01*
X154531904Y-63016190D01*
X154484285Y-63111428D01*
X154484285Y-63301904D01*
X154531904Y-63397142D01*
X154579523Y-63444761D01*
X154674761Y-63492380D01*
X154865238Y-63492380D01*
X154960476Y-63444761D01*
X155008095Y-63397142D01*
X155055714Y-63301904D01*
X155055714Y-63111428D01*
X155008095Y-63016190D01*
X154960476Y-62968571D01*
X154865238Y-62920952D01*
G04 #@! TO.C,D9*
X148031904Y-63492380D02*
X148031904Y-62492380D01*
X148270000Y-62492380D01*
X148412857Y-62540000D01*
X148508095Y-62635238D01*
X148555714Y-62730476D01*
X148603333Y-62920952D01*
X148603333Y-63063809D01*
X148555714Y-63254285D01*
X148508095Y-63349523D01*
X148412857Y-63444761D01*
X148270000Y-63492380D01*
X148031904Y-63492380D01*
X149079523Y-63492380D02*
X149270000Y-63492380D01*
X149365238Y-63444761D01*
X149412857Y-63397142D01*
X149508095Y-63254285D01*
X149555714Y-63063809D01*
X149555714Y-62682857D01*
X149508095Y-62587619D01*
X149460476Y-62540000D01*
X149365238Y-62492380D01*
X149174761Y-62492380D01*
X149079523Y-62540000D01*
X149031904Y-62587619D01*
X148984285Y-62682857D01*
X148984285Y-62920952D01*
X149031904Y-63016190D01*
X149079523Y-63063809D01*
X149174761Y-63111428D01*
X149365238Y-63111428D01*
X149460476Y-63063809D01*
X149508095Y-63016190D01*
X149555714Y-62920952D01*
G04 #@! TO.C,D10*
X142055714Y-63492380D02*
X142055714Y-62492380D01*
X142293809Y-62492380D01*
X142436666Y-62540000D01*
X142531904Y-62635238D01*
X142579523Y-62730476D01*
X142627142Y-62920952D01*
X142627142Y-63063809D01*
X142579523Y-63254285D01*
X142531904Y-63349523D01*
X142436666Y-63444761D01*
X142293809Y-63492380D01*
X142055714Y-63492380D01*
X143579523Y-63492380D02*
X143008095Y-63492380D01*
X143293809Y-63492380D02*
X143293809Y-62492380D01*
X143198571Y-62635238D01*
X143103333Y-62730476D01*
X143008095Y-62778095D01*
X144198571Y-62492380D02*
X144293809Y-62492380D01*
X144389047Y-62540000D01*
X144436666Y-62587619D01*
X144484285Y-62682857D01*
X144531904Y-62873333D01*
X144531904Y-63111428D01*
X144484285Y-63301904D01*
X144436666Y-63397142D01*
X144389047Y-63444761D01*
X144293809Y-63492380D01*
X144198571Y-63492380D01*
X144103333Y-63444761D01*
X144055714Y-63397142D01*
X144008095Y-63301904D01*
X143960476Y-63111428D01*
X143960476Y-62873333D01*
X144008095Y-62682857D01*
X144055714Y-62587619D01*
X144103333Y-62540000D01*
X144198571Y-62492380D01*
G04 #@! TO.C,D11*
X147555714Y-69492380D02*
X147555714Y-68492380D01*
X147793809Y-68492380D01*
X147936666Y-68540000D01*
X148031904Y-68635238D01*
X148079523Y-68730476D01*
X148127142Y-68920952D01*
X148127142Y-69063809D01*
X148079523Y-69254285D01*
X148031904Y-69349523D01*
X147936666Y-69444761D01*
X147793809Y-69492380D01*
X147555714Y-69492380D01*
X149079523Y-69492380D02*
X148508095Y-69492380D01*
X148793809Y-69492380D02*
X148793809Y-68492380D01*
X148698571Y-68635238D01*
X148603333Y-68730476D01*
X148508095Y-68778095D01*
X150031904Y-69492380D02*
X149460476Y-69492380D01*
X149746190Y-69492380D02*
X149746190Y-68492380D01*
X149650952Y-68635238D01*
X149555714Y-68730476D01*
X149460476Y-68778095D01*
G04 #@! TO.C,D12*
X153055714Y-75492380D02*
X153055714Y-74492380D01*
X153293809Y-74492380D01*
X153436666Y-74540000D01*
X153531904Y-74635238D01*
X153579523Y-74730476D01*
X153627142Y-74920952D01*
X153627142Y-75063809D01*
X153579523Y-75254285D01*
X153531904Y-75349523D01*
X153436666Y-75444761D01*
X153293809Y-75492380D01*
X153055714Y-75492380D01*
X154579523Y-75492380D02*
X154008095Y-75492380D01*
X154293809Y-75492380D02*
X154293809Y-74492380D01*
X154198571Y-74635238D01*
X154103333Y-74730476D01*
X154008095Y-74778095D01*
X154960476Y-74587619D02*
X155008095Y-74540000D01*
X155103333Y-74492380D01*
X155341428Y-74492380D01*
X155436666Y-74540000D01*
X155484285Y-74587619D01*
X155531904Y-74682857D01*
X155531904Y-74778095D01*
X155484285Y-74920952D01*
X154912857Y-75492380D01*
X155531904Y-75492380D01*
G04 #@! TO.C,D13*
X147555714Y-75492380D02*
X147555714Y-74492380D01*
X147793809Y-74492380D01*
X147936666Y-74540000D01*
X148031904Y-74635238D01*
X148079523Y-74730476D01*
X148127142Y-74920952D01*
X148127142Y-75063809D01*
X148079523Y-75254285D01*
X148031904Y-75349523D01*
X147936666Y-75444761D01*
X147793809Y-75492380D01*
X147555714Y-75492380D01*
X149079523Y-75492380D02*
X148508095Y-75492380D01*
X148793809Y-75492380D02*
X148793809Y-74492380D01*
X148698571Y-74635238D01*
X148603333Y-74730476D01*
X148508095Y-74778095D01*
X149412857Y-74492380D02*
X150031904Y-74492380D01*
X149698571Y-74873333D01*
X149841428Y-74873333D01*
X149936666Y-74920952D01*
X149984285Y-74968571D01*
X150031904Y-75063809D01*
X150031904Y-75301904D01*
X149984285Y-75397142D01*
X149936666Y-75444761D01*
X149841428Y-75492380D01*
X149555714Y-75492380D01*
X149460476Y-75444761D01*
X149412857Y-75397142D01*
G04 #@! TO.C,D14*
X142055714Y-75492380D02*
X142055714Y-74492380D01*
X142293809Y-74492380D01*
X142436666Y-74540000D01*
X142531904Y-74635238D01*
X142579523Y-74730476D01*
X142627142Y-74920952D01*
X142627142Y-75063809D01*
X142579523Y-75254285D01*
X142531904Y-75349523D01*
X142436666Y-75444761D01*
X142293809Y-75492380D01*
X142055714Y-75492380D01*
X143579523Y-75492380D02*
X143008095Y-75492380D01*
X143293809Y-75492380D02*
X143293809Y-74492380D01*
X143198571Y-74635238D01*
X143103333Y-74730476D01*
X143008095Y-74778095D01*
X144436666Y-74825714D02*
X144436666Y-75492380D01*
X144198571Y-74444761D02*
X143960476Y-75159047D01*
X144579523Y-75159047D01*
G04 #@! TO.C,R8*
X160102380Y-65166666D02*
X159626190Y-65500000D01*
X160102380Y-65738095D02*
X159102380Y-65738095D01*
X159102380Y-65357142D01*
X159150000Y-65261904D01*
X159197619Y-65214285D01*
X159292857Y-65166666D01*
X159435714Y-65166666D01*
X159530952Y-65214285D01*
X159578571Y-65261904D01*
X159626190Y-65357142D01*
X159626190Y-65738095D01*
X159530952Y-64595238D02*
X159483333Y-64690476D01*
X159435714Y-64738095D01*
X159340476Y-64785714D01*
X159292857Y-64785714D01*
X159197619Y-64738095D01*
X159150000Y-64690476D01*
X159102380Y-64595238D01*
X159102380Y-64404761D01*
X159150000Y-64309523D01*
X159197619Y-64261904D01*
X159292857Y-64214285D01*
X159340476Y-64214285D01*
X159435714Y-64261904D01*
X159483333Y-64309523D01*
X159530952Y-64404761D01*
X159530952Y-64595238D01*
X159578571Y-64690476D01*
X159626190Y-64738095D01*
X159721428Y-64785714D01*
X159911904Y-64785714D01*
X160007142Y-64738095D01*
X160054761Y-64690476D01*
X160102380Y-64595238D01*
X160102380Y-64404761D01*
X160054761Y-64309523D01*
X160007142Y-64261904D01*
X159911904Y-64214285D01*
X159721428Y-64214285D01*
X159626190Y-64261904D01*
X159578571Y-64309523D01*
X159530952Y-64404761D01*
G04 #@! TO.C,R9*
X148833333Y-61302380D02*
X148500000Y-60826190D01*
X148261904Y-61302380D02*
X148261904Y-60302380D01*
X148642857Y-60302380D01*
X148738095Y-60350000D01*
X148785714Y-60397619D01*
X148833333Y-60492857D01*
X148833333Y-60635714D01*
X148785714Y-60730952D01*
X148738095Y-60778571D01*
X148642857Y-60826190D01*
X148261904Y-60826190D01*
X149309523Y-61302380D02*
X149500000Y-61302380D01*
X149595238Y-61254761D01*
X149642857Y-61207142D01*
X149738095Y-61064285D01*
X149785714Y-60873809D01*
X149785714Y-60492857D01*
X149738095Y-60397619D01*
X149690476Y-60350000D01*
X149595238Y-60302380D01*
X149404761Y-60302380D01*
X149309523Y-60350000D01*
X149261904Y-60397619D01*
X149214285Y-60492857D01*
X149214285Y-60730952D01*
X149261904Y-60826190D01*
X149309523Y-60873809D01*
X149404761Y-60921428D01*
X149595238Y-60921428D01*
X149690476Y-60873809D01*
X149738095Y-60826190D01*
X149785714Y-60730952D01*
G04 #@! TO.C,R10*
X142857142Y-61302380D02*
X142523809Y-60826190D01*
X142285714Y-61302380D02*
X142285714Y-60302380D01*
X142666666Y-60302380D01*
X142761904Y-60350000D01*
X142809523Y-60397619D01*
X142857142Y-60492857D01*
X142857142Y-60635714D01*
X142809523Y-60730952D01*
X142761904Y-60778571D01*
X142666666Y-60826190D01*
X142285714Y-60826190D01*
X143809523Y-61302380D02*
X143238095Y-61302380D01*
X143523809Y-61302380D02*
X143523809Y-60302380D01*
X143428571Y-60445238D01*
X143333333Y-60540476D01*
X143238095Y-60588095D01*
X144428571Y-60302380D02*
X144523809Y-60302380D01*
X144619047Y-60350000D01*
X144666666Y-60397619D01*
X144714285Y-60492857D01*
X144761904Y-60683333D01*
X144761904Y-60921428D01*
X144714285Y-61111904D01*
X144666666Y-61207142D01*
X144619047Y-61254761D01*
X144523809Y-61302380D01*
X144428571Y-61302380D01*
X144333333Y-61254761D01*
X144285714Y-61207142D01*
X144238095Y-61111904D01*
X144190476Y-60921428D01*
X144190476Y-60683333D01*
X144238095Y-60492857D01*
X144285714Y-60397619D01*
X144333333Y-60350000D01*
X144428571Y-60302380D01*
G04 #@! TO.C,R11*
X152857142Y-74102380D02*
X152523809Y-73626190D01*
X152285714Y-74102380D02*
X152285714Y-73102380D01*
X152666666Y-73102380D01*
X152761904Y-73150000D01*
X152809523Y-73197619D01*
X152857142Y-73292857D01*
X152857142Y-73435714D01*
X152809523Y-73530952D01*
X152761904Y-73578571D01*
X152666666Y-73626190D01*
X152285714Y-73626190D01*
X153809523Y-74102380D02*
X153238095Y-74102380D01*
X153523809Y-74102380D02*
X153523809Y-73102380D01*
X153428571Y-73245238D01*
X153333333Y-73340476D01*
X153238095Y-73388095D01*
X154761904Y-74102380D02*
X154190476Y-74102380D01*
X154476190Y-74102380D02*
X154476190Y-73102380D01*
X154380952Y-73245238D01*
X154285714Y-73340476D01*
X154190476Y-73388095D01*
G04 #@! TO.C,R12*
X160102380Y-78142857D02*
X159626190Y-78476190D01*
X160102380Y-78714285D02*
X159102380Y-78714285D01*
X159102380Y-78333333D01*
X159150000Y-78238095D01*
X159197619Y-78190476D01*
X159292857Y-78142857D01*
X159435714Y-78142857D01*
X159530952Y-78190476D01*
X159578571Y-78238095D01*
X159626190Y-78333333D01*
X159626190Y-78714285D01*
X160102380Y-77190476D02*
X160102380Y-77761904D01*
X160102380Y-77476190D02*
X159102380Y-77476190D01*
X159245238Y-77571428D01*
X159340476Y-77666666D01*
X159388095Y-77761904D01*
X159197619Y-76809523D02*
X159150000Y-76761904D01*
X159102380Y-76666666D01*
X159102380Y-76428571D01*
X159150000Y-76333333D01*
X159197619Y-76285714D01*
X159292857Y-76238095D01*
X159388095Y-76238095D01*
X159530952Y-76285714D01*
X160102380Y-76857142D01*
X160102380Y-76238095D01*
G04 #@! TO.C,R13*
X148357142Y-80302380D02*
X148023809Y-79826190D01*
X147785714Y-80302380D02*
X147785714Y-79302380D01*
X148166666Y-79302380D01*
X148261904Y-79350000D01*
X148309523Y-79397619D01*
X148357142Y-79492857D01*
X148357142Y-79635714D01*
X148309523Y-79730952D01*
X148261904Y-79778571D01*
X148166666Y-79826190D01*
X147785714Y-79826190D01*
X149309523Y-80302380D02*
X148738095Y-80302380D01*
X149023809Y-80302380D02*
X149023809Y-79302380D01*
X148928571Y-79445238D01*
X148833333Y-79540476D01*
X148738095Y-79588095D01*
X149642857Y-79302380D02*
X150261904Y-79302380D01*
X149928571Y-79683333D01*
X150071428Y-79683333D01*
X150166666Y-79730952D01*
X150214285Y-79778571D01*
X150261904Y-79873809D01*
X150261904Y-80111904D01*
X150214285Y-80207142D01*
X150166666Y-80254761D01*
X150071428Y-80302380D01*
X149785714Y-80302380D01*
X149690476Y-80254761D01*
X149642857Y-80207142D01*
G04 #@! TO.C,R14*
X142857142Y-84102380D02*
X142523809Y-83626190D01*
X142285714Y-84102380D02*
X142285714Y-83102380D01*
X142666666Y-83102380D01*
X142761904Y-83150000D01*
X142809523Y-83197619D01*
X142857142Y-83292857D01*
X142857142Y-83435714D01*
X142809523Y-83530952D01*
X142761904Y-83578571D01*
X142666666Y-83626190D01*
X142285714Y-83626190D01*
X143809523Y-84102380D02*
X143238095Y-84102380D01*
X143523809Y-84102380D02*
X143523809Y-83102380D01*
X143428571Y-83245238D01*
X143333333Y-83340476D01*
X143238095Y-83388095D01*
X144666666Y-83435714D02*
X144666666Y-84102380D01*
X144428571Y-83054761D02*
X144190476Y-83769047D01*
X144809523Y-83769047D01*
G04 #@! TO.C,SW1*
X120916666Y-109404761D02*
X121059523Y-109452380D01*
X121297619Y-109452380D01*
X121392857Y-109404761D01*
X121440476Y-109357142D01*
X121488095Y-109261904D01*
X121488095Y-109166666D01*
X121440476Y-109071428D01*
X121392857Y-109023809D01*
X121297619Y-108976190D01*
X121107142Y-108928571D01*
X121011904Y-108880952D01*
X120964285Y-108833333D01*
X120916666Y-108738095D01*
X120916666Y-108642857D01*
X120964285Y-108547619D01*
X121011904Y-108500000D01*
X121107142Y-108452380D01*
X121345238Y-108452380D01*
X121488095Y-108500000D01*
X121821428Y-108452380D02*
X122059523Y-109452380D01*
X122250000Y-108738095D01*
X122440476Y-109452380D01*
X122678571Y-108452380D01*
X123583333Y-109452380D02*
X123011904Y-109452380D01*
X123297619Y-109452380D02*
X123297619Y-108452380D01*
X123202380Y-108595238D01*
X123107142Y-108690476D01*
X123011904Y-108738095D01*
G04 #@! TO.C,R15*
X121357142Y-105802380D02*
X121023809Y-105326190D01*
X120785714Y-105802380D02*
X120785714Y-104802380D01*
X121166666Y-104802380D01*
X121261904Y-104850000D01*
X121309523Y-104897619D01*
X121357142Y-104992857D01*
X121357142Y-105135714D01*
X121309523Y-105230952D01*
X121261904Y-105278571D01*
X121166666Y-105326190D01*
X120785714Y-105326190D01*
X122309523Y-105802380D02*
X121738095Y-105802380D01*
X122023809Y-105802380D02*
X122023809Y-104802380D01*
X121928571Y-104945238D01*
X121833333Y-105040476D01*
X121738095Y-105088095D01*
X123214285Y-104802380D02*
X122738095Y-104802380D01*
X122690476Y-105278571D01*
X122738095Y-105230952D01*
X122833333Y-105183333D01*
X123071428Y-105183333D01*
X123166666Y-105230952D01*
X123214285Y-105278571D01*
X123261904Y-105373809D01*
X123261904Y-105611904D01*
X123214285Y-105707142D01*
X123166666Y-105754761D01*
X123071428Y-105802380D01*
X122833333Y-105802380D01*
X122738095Y-105754761D01*
X122690476Y-105707142D01*
G04 #@! TD*
M02*
