M48
;DRILL file {KiCad (5.0.1)-3} date 8/4/2019 12:28:55 PM
;FORMAT={-:-/ absolute / inch / decimal}
FMAT,2
INCH,TZ
T1C0.0354
T2C0.0394
T3C0.0433
%
G90
G05
M72
T1
X5.5824Y-3.6819
X5.6824Y-3.6819
X5.8071Y-2.5984
X5.9071Y-2.5984
X5.7989Y-4.1581
X5.8989Y-4.1581
X5.5906Y-2.5984
X5.6906Y-2.5984
X6.0154Y-4.1581
X6.1154Y-4.1581
X5.5906Y-3.0709
X5.6906Y-3.0709
X5.8071Y-3.0709
X5.9071Y-3.0709
X5.7989Y-3.9219
X5.8989Y-3.9219
X6.0236Y-2.5984
X6.1236Y-2.5984
X5.5824Y-4.1581
X5.6824Y-4.1581
X5.7989Y-3.6819
X5.8989Y-3.6819
X5.8071Y-2.8346
X5.9071Y-2.8346
X6.0154Y-3.6819
X6.1154Y-3.6819
X6.0236Y-3.0709
X6.1236Y-3.0709
T2
X4.5969Y-2.4189
X4.5969Y-2.5189
X4.5969Y-2.6189
X4.5969Y-2.7189
X4.5969Y-2.8189
X4.5969Y-2.9189
X4.5969Y-3.0189
X4.5969Y-3.1189
X4.5969Y-3.2189
X4.5969Y-3.3189
X4.5969Y-3.4189
X4.5969Y-3.5189
X4.5969Y-3.6189
X4.5969Y-3.7189
X4.5969Y-3.8189
X5.1969Y-2.4189
X5.1969Y-2.5189
X5.1969Y-2.6189
X5.1969Y-2.7189
X5.1969Y-2.8189
X5.1969Y-2.9189
X5.1969Y-3.0189
X5.1969Y-3.1189
X5.1969Y-3.2189
X5.1969Y-3.3189
X5.1969Y-3.4189
X5.1969Y-3.5189
X5.1969Y-3.6189
X5.1969Y-3.7189
X5.1969Y-3.8189
T3
X4.685Y-4.3701
X4.685Y-4.5472
X4.9409Y-4.3701
X4.9409Y-4.5472
T0
M30
