G04 #@! TF.GenerationSoftware,KiCad,Pcbnew,(5.0.1)-3*
G04 #@! TF.CreationDate,2019-08-04T12:29:00-04:00*
G04 #@! TF.ProjectId,Dice_roller,446963655F726F6C6C65722E6B696361,rev?*
G04 #@! TF.SameCoordinates,Original*
G04 #@! TF.FileFunction,Soldermask,Top*
G04 #@! TF.FilePolarity,Negative*
%FSLAX46Y46*%
G04 Gerber Fmt 4.6, Leading zero omitted, Abs format (unit mm)*
G04 Created by KiCad (PCBNEW (5.0.1)-3) date 8/4/2019 12:29:00 PM*
%MOMM*%
%LPD*%
G01*
G04 APERTURE LIST*
%ADD10C,0.100000*%
G04 APERTURE END LIST*
D10*
G36*
X125806565Y-114489389D02*
X125997834Y-114568615D01*
X126169976Y-114683637D01*
X126316363Y-114830024D01*
X126431385Y-115002166D01*
X126510611Y-115193435D01*
X126551000Y-115396484D01*
X126551000Y-115603516D01*
X126510611Y-115806565D01*
X126431385Y-115997834D01*
X126316363Y-116169976D01*
X126169976Y-116316363D01*
X125997834Y-116431385D01*
X125806565Y-116510611D01*
X125603516Y-116551000D01*
X125396484Y-116551000D01*
X125193435Y-116510611D01*
X125002166Y-116431385D01*
X124830024Y-116316363D01*
X124683637Y-116169976D01*
X124568615Y-115997834D01*
X124489389Y-115806565D01*
X124449000Y-115603516D01*
X124449000Y-115396484D01*
X124489389Y-115193435D01*
X124568615Y-115002166D01*
X124683637Y-114830024D01*
X124830024Y-114683637D01*
X125002166Y-114568615D01*
X125193435Y-114489389D01*
X125396484Y-114449000D01*
X125603516Y-114449000D01*
X125806565Y-114489389D01*
X125806565Y-114489389D01*
G37*
G36*
X119306565Y-114489389D02*
X119497834Y-114568615D01*
X119669976Y-114683637D01*
X119816363Y-114830024D01*
X119931385Y-115002166D01*
X120010611Y-115193435D01*
X120051000Y-115396484D01*
X120051000Y-115603516D01*
X120010611Y-115806565D01*
X119931385Y-115997834D01*
X119816363Y-116169976D01*
X119669976Y-116316363D01*
X119497834Y-116431385D01*
X119306565Y-116510611D01*
X119103516Y-116551000D01*
X118896484Y-116551000D01*
X118693435Y-116510611D01*
X118502166Y-116431385D01*
X118330024Y-116316363D01*
X118183637Y-116169976D01*
X118068615Y-115997834D01*
X117989389Y-115806565D01*
X117949000Y-115603516D01*
X117949000Y-115396484D01*
X117989389Y-115193435D01*
X118068615Y-115002166D01*
X118183637Y-114830024D01*
X118330024Y-114683637D01*
X118502166Y-114568615D01*
X118693435Y-114489389D01*
X118896484Y-114449000D01*
X119103516Y-114449000D01*
X119306565Y-114489389D01*
X119306565Y-114489389D01*
G37*
G36*
X119306565Y-109989389D02*
X119497834Y-110068615D01*
X119669976Y-110183637D01*
X119816363Y-110330024D01*
X119931385Y-110502166D01*
X120010611Y-110693435D01*
X120051000Y-110896484D01*
X120051000Y-111103516D01*
X120010611Y-111306565D01*
X119931385Y-111497834D01*
X119816363Y-111669976D01*
X119669976Y-111816363D01*
X119497834Y-111931385D01*
X119306565Y-112010611D01*
X119103516Y-112051000D01*
X118896484Y-112051000D01*
X118693435Y-112010611D01*
X118502166Y-111931385D01*
X118330024Y-111816363D01*
X118183637Y-111669976D01*
X118068615Y-111497834D01*
X117989389Y-111306565D01*
X117949000Y-111103516D01*
X117949000Y-110896484D01*
X117989389Y-110693435D01*
X118068615Y-110502166D01*
X118183637Y-110330024D01*
X118330024Y-110183637D01*
X118502166Y-110068615D01*
X118693435Y-109989389D01*
X118896484Y-109949000D01*
X119103516Y-109949000D01*
X119306565Y-109989389D01*
X119306565Y-109989389D01*
G37*
G36*
X125806565Y-109989389D02*
X125997834Y-110068615D01*
X126169976Y-110183637D01*
X126316363Y-110330024D01*
X126431385Y-110502166D01*
X126510611Y-110693435D01*
X126551000Y-110896484D01*
X126551000Y-111103516D01*
X126510611Y-111306565D01*
X126431385Y-111497834D01*
X126316363Y-111669976D01*
X126169976Y-111816363D01*
X125997834Y-111931385D01*
X125806565Y-112010611D01*
X125603516Y-112051000D01*
X125396484Y-112051000D01*
X125193435Y-112010611D01*
X125002166Y-111931385D01*
X124830024Y-111816363D01*
X124683637Y-111669976D01*
X124568615Y-111497834D01*
X124489389Y-111306565D01*
X124449000Y-111103516D01*
X124449000Y-110896484D01*
X124489389Y-110693435D01*
X124568615Y-110502166D01*
X124683637Y-110330024D01*
X124830024Y-110183637D01*
X125002166Y-110068615D01*
X125193435Y-109989389D01*
X125396484Y-109949000D01*
X125603516Y-109949000D01*
X125806565Y-109989389D01*
X125806565Y-109989389D01*
G37*
G36*
X150380506Y-110519157D02*
X150418193Y-110530590D01*
X150452932Y-110549158D01*
X150483377Y-110574144D01*
X150508363Y-110604589D01*
X150526931Y-110639328D01*
X150538364Y-110677015D01*
X150542829Y-110722353D01*
X150542829Y-111559031D01*
X150538364Y-111604369D01*
X150526931Y-111642056D01*
X150508363Y-111676795D01*
X150483377Y-111707240D01*
X150452932Y-111732226D01*
X150418193Y-111750794D01*
X150380506Y-111762227D01*
X150335168Y-111766692D01*
X149248490Y-111766692D01*
X149203152Y-111762227D01*
X149165465Y-111750794D01*
X149130726Y-111732226D01*
X149100281Y-111707240D01*
X149075295Y-111676795D01*
X149056727Y-111642056D01*
X149045294Y-111604369D01*
X149040829Y-111559031D01*
X149040829Y-110722353D01*
X149045294Y-110677015D01*
X149056727Y-110639328D01*
X149075295Y-110604589D01*
X149100281Y-110574144D01*
X149130726Y-110549158D01*
X149165465Y-110530590D01*
X149203152Y-110519157D01*
X149248490Y-110514692D01*
X150335168Y-110514692D01*
X150380506Y-110519157D01*
X150380506Y-110519157D01*
G37*
G36*
X144880506Y-110519157D02*
X144918193Y-110530590D01*
X144952932Y-110549158D01*
X144983377Y-110574144D01*
X145008363Y-110604589D01*
X145026931Y-110639328D01*
X145038364Y-110677015D01*
X145042829Y-110722353D01*
X145042829Y-111559031D01*
X145038364Y-111604369D01*
X145026931Y-111642056D01*
X145008363Y-111676795D01*
X144983377Y-111707240D01*
X144952932Y-111732226D01*
X144918193Y-111750794D01*
X144880506Y-111762227D01*
X144835168Y-111766692D01*
X143748490Y-111766692D01*
X143703152Y-111762227D01*
X143665465Y-111750794D01*
X143630726Y-111732226D01*
X143600281Y-111707240D01*
X143575295Y-111676795D01*
X143556727Y-111642056D01*
X143545294Y-111604369D01*
X143540829Y-111559031D01*
X143540829Y-110722353D01*
X143545294Y-110677015D01*
X143556727Y-110639328D01*
X143575295Y-110604589D01*
X143600281Y-110574144D01*
X143630726Y-110549158D01*
X143665465Y-110530590D01*
X143703152Y-110519157D01*
X143748490Y-110514692D01*
X144835168Y-110514692D01*
X144880506Y-110519157D01*
X144880506Y-110519157D01*
G37*
G36*
X155880506Y-110519157D02*
X155918193Y-110530590D01*
X155952932Y-110549158D01*
X155983377Y-110574144D01*
X156008363Y-110604589D01*
X156026931Y-110639328D01*
X156038364Y-110677015D01*
X156042829Y-110722353D01*
X156042829Y-111559031D01*
X156038364Y-111604369D01*
X156026931Y-111642056D01*
X156008363Y-111676795D01*
X155983377Y-111707240D01*
X155952932Y-111732226D01*
X155918193Y-111750794D01*
X155880506Y-111762227D01*
X155835168Y-111766692D01*
X154748490Y-111766692D01*
X154703152Y-111762227D01*
X154665465Y-111750794D01*
X154630726Y-111732226D01*
X154600281Y-111707240D01*
X154575295Y-111676795D01*
X154556727Y-111642056D01*
X154545294Y-111604369D01*
X154540829Y-111559031D01*
X154540829Y-110722353D01*
X154545294Y-110677015D01*
X154556727Y-110639328D01*
X154575295Y-110604589D01*
X154600281Y-110574144D01*
X154630726Y-110549158D01*
X154665465Y-110530590D01*
X154703152Y-110519157D01*
X154748490Y-110514692D01*
X155835168Y-110514692D01*
X155880506Y-110519157D01*
X155880506Y-110519157D01*
G37*
G36*
X144880506Y-108469157D02*
X144918193Y-108480590D01*
X144952932Y-108499158D01*
X144983377Y-108524144D01*
X145008363Y-108554589D01*
X145026931Y-108589328D01*
X145038364Y-108627015D01*
X145042829Y-108672353D01*
X145042829Y-109509031D01*
X145038364Y-109554369D01*
X145026931Y-109592056D01*
X145008363Y-109626795D01*
X144983377Y-109657240D01*
X144952932Y-109682226D01*
X144918193Y-109700794D01*
X144880506Y-109712227D01*
X144835168Y-109716692D01*
X143748490Y-109716692D01*
X143703152Y-109712227D01*
X143665465Y-109700794D01*
X143630726Y-109682226D01*
X143600281Y-109657240D01*
X143575295Y-109626795D01*
X143556727Y-109592056D01*
X143545294Y-109554369D01*
X143540829Y-109509031D01*
X143540829Y-108672353D01*
X143545294Y-108627015D01*
X143556727Y-108589328D01*
X143575295Y-108554589D01*
X143600281Y-108524144D01*
X143630726Y-108499158D01*
X143665465Y-108480590D01*
X143703152Y-108469157D01*
X143748490Y-108464692D01*
X144835168Y-108464692D01*
X144880506Y-108469157D01*
X144880506Y-108469157D01*
G37*
G36*
X150380506Y-108469157D02*
X150418193Y-108480590D01*
X150452932Y-108499158D01*
X150483377Y-108524144D01*
X150508363Y-108554589D01*
X150526931Y-108589328D01*
X150538364Y-108627015D01*
X150542829Y-108672353D01*
X150542829Y-109509031D01*
X150538364Y-109554369D01*
X150526931Y-109592056D01*
X150508363Y-109626795D01*
X150483377Y-109657240D01*
X150452932Y-109682226D01*
X150418193Y-109700794D01*
X150380506Y-109712227D01*
X150335168Y-109716692D01*
X149248490Y-109716692D01*
X149203152Y-109712227D01*
X149165465Y-109700794D01*
X149130726Y-109682226D01*
X149100281Y-109657240D01*
X149075295Y-109626795D01*
X149056727Y-109592056D01*
X149045294Y-109554369D01*
X149040829Y-109509031D01*
X149040829Y-108672353D01*
X149045294Y-108627015D01*
X149056727Y-108589328D01*
X149075295Y-108554589D01*
X149100281Y-108524144D01*
X149130726Y-108499158D01*
X149165465Y-108480590D01*
X149203152Y-108469157D01*
X149248490Y-108464692D01*
X150335168Y-108464692D01*
X150380506Y-108469157D01*
X150380506Y-108469157D01*
G37*
G36*
X155880506Y-108469157D02*
X155918193Y-108480590D01*
X155952932Y-108499158D01*
X155983377Y-108524144D01*
X156008363Y-108554589D01*
X156026931Y-108589328D01*
X156038364Y-108627015D01*
X156042829Y-108672353D01*
X156042829Y-109509031D01*
X156038364Y-109554369D01*
X156026931Y-109592056D01*
X156008363Y-109626795D01*
X155983377Y-109657240D01*
X155952932Y-109682226D01*
X155918193Y-109700794D01*
X155880506Y-109712227D01*
X155835168Y-109716692D01*
X154748490Y-109716692D01*
X154703152Y-109712227D01*
X154665465Y-109700794D01*
X154630726Y-109682226D01*
X154600281Y-109657240D01*
X154575295Y-109626795D01*
X154556727Y-109592056D01*
X154545294Y-109554369D01*
X154540829Y-109509031D01*
X154540829Y-108672353D01*
X154545294Y-108627015D01*
X154556727Y-108589328D01*
X154575295Y-108554589D01*
X154600281Y-108524144D01*
X154630726Y-108499158D01*
X154665465Y-108480590D01*
X154703152Y-108469157D01*
X154748490Y-108464692D01*
X155835168Y-108464692D01*
X155880506Y-108469157D01*
X155880506Y-108469157D01*
G37*
G36*
X121438677Y-106253465D02*
X121476364Y-106264898D01*
X121511103Y-106283466D01*
X121541548Y-106308452D01*
X121566534Y-106338897D01*
X121585102Y-106373636D01*
X121596535Y-106411323D01*
X121601000Y-106456661D01*
X121601000Y-107543339D01*
X121596535Y-107588677D01*
X121585102Y-107626364D01*
X121566534Y-107661103D01*
X121541548Y-107691548D01*
X121511103Y-107716534D01*
X121476364Y-107735102D01*
X121438677Y-107746535D01*
X121393339Y-107751000D01*
X120556661Y-107751000D01*
X120511323Y-107746535D01*
X120473636Y-107735102D01*
X120438897Y-107716534D01*
X120408452Y-107691548D01*
X120383466Y-107661103D01*
X120364898Y-107626364D01*
X120353465Y-107588677D01*
X120349000Y-107543339D01*
X120349000Y-106456661D01*
X120353465Y-106411323D01*
X120364898Y-106373636D01*
X120383466Y-106338897D01*
X120408452Y-106308452D01*
X120438897Y-106283466D01*
X120473636Y-106264898D01*
X120511323Y-106253465D01*
X120556661Y-106249000D01*
X121393339Y-106249000D01*
X121438677Y-106253465D01*
X121438677Y-106253465D01*
G37*
G36*
X123488677Y-106253465D02*
X123526364Y-106264898D01*
X123561103Y-106283466D01*
X123591548Y-106308452D01*
X123616534Y-106338897D01*
X123635102Y-106373636D01*
X123646535Y-106411323D01*
X123651000Y-106456661D01*
X123651000Y-107543339D01*
X123646535Y-107588677D01*
X123635102Y-107626364D01*
X123616534Y-107661103D01*
X123591548Y-107691548D01*
X123561103Y-107716534D01*
X123526364Y-107735102D01*
X123488677Y-107746535D01*
X123443339Y-107751000D01*
X122606661Y-107751000D01*
X122561323Y-107746535D01*
X122523636Y-107735102D01*
X122488897Y-107716534D01*
X122458452Y-107691548D01*
X122433466Y-107661103D01*
X122414898Y-107626364D01*
X122403465Y-107588677D01*
X122399000Y-107543339D01*
X122399000Y-106456661D01*
X122403465Y-106411323D01*
X122414898Y-106373636D01*
X122433466Y-106338897D01*
X122458452Y-106308452D01*
X122488897Y-106283466D01*
X122523636Y-106264898D01*
X122561323Y-106253465D01*
X122606661Y-106249000D01*
X123443339Y-106249000D01*
X123488677Y-106253465D01*
X123488677Y-106253465D01*
G37*
G36*
X144609225Y-104701238D02*
X144782295Y-104772926D01*
X144938059Y-104877004D01*
X145070517Y-105009462D01*
X145174595Y-105165226D01*
X145246283Y-105338296D01*
X145282829Y-105522025D01*
X145282829Y-105709359D01*
X145246283Y-105893088D01*
X145174595Y-106066158D01*
X145070517Y-106221922D01*
X144938059Y-106354380D01*
X144782295Y-106458458D01*
X144609225Y-106530146D01*
X144425496Y-106566692D01*
X144238162Y-106566692D01*
X144054433Y-106530146D01*
X143881363Y-106458458D01*
X143725599Y-106354380D01*
X143593141Y-106221922D01*
X143489063Y-106066158D01*
X143417375Y-105893088D01*
X143380829Y-105709359D01*
X143380829Y-105522025D01*
X143417375Y-105338296D01*
X143489063Y-105165226D01*
X143593141Y-105009462D01*
X143725599Y-104877004D01*
X143881363Y-104772926D01*
X144054433Y-104701238D01*
X144238162Y-104664692D01*
X144425496Y-104664692D01*
X144609225Y-104701238D01*
X144609225Y-104701238D01*
G37*
G36*
X150109225Y-104701238D02*
X150282295Y-104772926D01*
X150438059Y-104877004D01*
X150570517Y-105009462D01*
X150674595Y-105165226D01*
X150746283Y-105338296D01*
X150782829Y-105522025D01*
X150782829Y-105709359D01*
X150746283Y-105893088D01*
X150674595Y-106066158D01*
X150570517Y-106221922D01*
X150438059Y-106354380D01*
X150282295Y-106458458D01*
X150109225Y-106530146D01*
X149925496Y-106566692D01*
X149738162Y-106566692D01*
X149554433Y-106530146D01*
X149381363Y-106458458D01*
X149225599Y-106354380D01*
X149093141Y-106221922D01*
X148989063Y-106066158D01*
X148917375Y-105893088D01*
X148880829Y-105709359D01*
X148880829Y-105522025D01*
X148917375Y-105338296D01*
X148989063Y-105165226D01*
X149093141Y-105009462D01*
X149225599Y-104877004D01*
X149381363Y-104772926D01*
X149554433Y-104701238D01*
X149738162Y-104664692D01*
X149925496Y-104664692D01*
X150109225Y-104701238D01*
X150109225Y-104701238D01*
G37*
G36*
X148242829Y-106566692D02*
X146340829Y-106566692D01*
X146340829Y-104664692D01*
X148242829Y-104664692D01*
X148242829Y-106566692D01*
X148242829Y-106566692D01*
G37*
G36*
X153742829Y-106566692D02*
X151840829Y-106566692D01*
X151840829Y-104664692D01*
X153742829Y-104664692D01*
X153742829Y-106566692D01*
X153742829Y-106566692D01*
G37*
G36*
X142742829Y-106566692D02*
X140840829Y-106566692D01*
X140840829Y-104664692D01*
X142742829Y-104664692D01*
X142742829Y-106566692D01*
X142742829Y-106566692D01*
G37*
G36*
X155609225Y-104701238D02*
X155782295Y-104772926D01*
X155938059Y-104877004D01*
X156070517Y-105009462D01*
X156174595Y-105165226D01*
X156246283Y-105338296D01*
X156282829Y-105522025D01*
X156282829Y-105709359D01*
X156246283Y-105893088D01*
X156174595Y-106066158D01*
X156070517Y-106221922D01*
X155938059Y-106354380D01*
X155782295Y-106458458D01*
X155609225Y-106530146D01*
X155425496Y-106566692D01*
X155238162Y-106566692D01*
X155054433Y-106530146D01*
X154881363Y-106458458D01*
X154725599Y-106354380D01*
X154593141Y-106221922D01*
X154489063Y-106066158D01*
X154417375Y-105893088D01*
X154380829Y-105709359D01*
X154380829Y-105522025D01*
X154417375Y-105338296D01*
X154489063Y-105165226D01*
X154593141Y-105009462D01*
X154725599Y-104877004D01*
X154881363Y-104772926D01*
X155054433Y-104701238D01*
X155238162Y-104664692D01*
X155425496Y-104664692D01*
X155609225Y-104701238D01*
X155609225Y-104701238D01*
G37*
G36*
X150109225Y-98701238D02*
X150282295Y-98772926D01*
X150438059Y-98877004D01*
X150570517Y-99009462D01*
X150674595Y-99165226D01*
X150746283Y-99338296D01*
X150782829Y-99522025D01*
X150782829Y-99709359D01*
X150746283Y-99893088D01*
X150674595Y-100066158D01*
X150570517Y-100221922D01*
X150438059Y-100354380D01*
X150282295Y-100458458D01*
X150109225Y-100530146D01*
X149925496Y-100566692D01*
X149738162Y-100566692D01*
X149554433Y-100530146D01*
X149381363Y-100458458D01*
X149225599Y-100354380D01*
X149093141Y-100221922D01*
X148989063Y-100066158D01*
X148917375Y-99893088D01*
X148880829Y-99709359D01*
X148880829Y-99522025D01*
X148917375Y-99338296D01*
X148989063Y-99165226D01*
X149093141Y-99009462D01*
X149225599Y-98877004D01*
X149381363Y-98772926D01*
X149554433Y-98701238D01*
X149738162Y-98664692D01*
X149925496Y-98664692D01*
X150109225Y-98701238D01*
X150109225Y-98701238D01*
G37*
G36*
X148242829Y-100566692D02*
X146340829Y-100566692D01*
X146340829Y-98664692D01*
X148242829Y-98664692D01*
X148242829Y-100566692D01*
X148242829Y-100566692D01*
G37*
G36*
X154280506Y-98869157D02*
X154318193Y-98880590D01*
X154352932Y-98899158D01*
X154383377Y-98924144D01*
X154408363Y-98954589D01*
X154426931Y-98989328D01*
X154438364Y-99027015D01*
X154442829Y-99072353D01*
X154442829Y-100159031D01*
X154438364Y-100204369D01*
X154426931Y-100242056D01*
X154408363Y-100276795D01*
X154383377Y-100307240D01*
X154352932Y-100332226D01*
X154318193Y-100350794D01*
X154280506Y-100362227D01*
X154235168Y-100366692D01*
X153398490Y-100366692D01*
X153353152Y-100362227D01*
X153315465Y-100350794D01*
X153280726Y-100332226D01*
X153250281Y-100307240D01*
X153225295Y-100276795D01*
X153206727Y-100242056D01*
X153195294Y-100204369D01*
X153190829Y-100159031D01*
X153190829Y-99072353D01*
X153195294Y-99027015D01*
X153206727Y-98989328D01*
X153225295Y-98954589D01*
X153250281Y-98924144D01*
X153280726Y-98899158D01*
X153315465Y-98880590D01*
X153353152Y-98869157D01*
X153398490Y-98864692D01*
X154235168Y-98864692D01*
X154280506Y-98869157D01*
X154280506Y-98869157D01*
G37*
G36*
X152230506Y-98869157D02*
X152268193Y-98880590D01*
X152302932Y-98899158D01*
X152333377Y-98924144D01*
X152358363Y-98954589D01*
X152376931Y-98989328D01*
X152388364Y-99027015D01*
X152392829Y-99072353D01*
X152392829Y-100159031D01*
X152388364Y-100204369D01*
X152376931Y-100242056D01*
X152358363Y-100276795D01*
X152333377Y-100307240D01*
X152302932Y-100332226D01*
X152268193Y-100350794D01*
X152230506Y-100362227D01*
X152185168Y-100366692D01*
X151348490Y-100366692D01*
X151303152Y-100362227D01*
X151265465Y-100350794D01*
X151230726Y-100332226D01*
X151200281Y-100307240D01*
X151175295Y-100276795D01*
X151156727Y-100242056D01*
X151145294Y-100204369D01*
X151140829Y-100159031D01*
X151140829Y-99072353D01*
X151145294Y-99027015D01*
X151156727Y-98989328D01*
X151175295Y-98954589D01*
X151200281Y-98924144D01*
X151230726Y-98899158D01*
X151265465Y-98880590D01*
X151303152Y-98869157D01*
X151348490Y-98864692D01*
X152185168Y-98864692D01*
X152230506Y-98869157D01*
X152230506Y-98869157D01*
G37*
G36*
X116870442Y-96105518D02*
X116936627Y-96112037D01*
X117047698Y-96145730D01*
X117106467Y-96163557D01*
X117262988Y-96247220D01*
X117262989Y-96247221D01*
X117262991Y-96247222D01*
X117286715Y-96266692D01*
X117400186Y-96359814D01*
X117483448Y-96461271D01*
X117512778Y-96497009D01*
X117512779Y-96497011D01*
X117596443Y-96653533D01*
X117596443Y-96653534D01*
X117647963Y-96823373D01*
X117665359Y-97000000D01*
X117647963Y-97176627D01*
X117613616Y-97289853D01*
X117596443Y-97346467D01*
X117522348Y-97485087D01*
X117512778Y-97502991D01*
X117483448Y-97538729D01*
X117400186Y-97640186D01*
X117298729Y-97723448D01*
X117262991Y-97752778D01*
X117262989Y-97752779D01*
X117106467Y-97836443D01*
X117049853Y-97853616D01*
X116936627Y-97887963D01*
X116870442Y-97894482D01*
X116804260Y-97901000D01*
X116715740Y-97901000D01*
X116649557Y-97894481D01*
X116583373Y-97887963D01*
X116470147Y-97853616D01*
X116413533Y-97836443D01*
X116257011Y-97752779D01*
X116257009Y-97752778D01*
X116221271Y-97723448D01*
X116119814Y-97640186D01*
X116036552Y-97538729D01*
X116007222Y-97502991D01*
X115997652Y-97485087D01*
X115923557Y-97346467D01*
X115906384Y-97289853D01*
X115872037Y-97176627D01*
X115854641Y-97000000D01*
X115872037Y-96823373D01*
X115923557Y-96653534D01*
X115923557Y-96653533D01*
X116007221Y-96497011D01*
X116007222Y-96497009D01*
X116036552Y-96461271D01*
X116119814Y-96359814D01*
X116233285Y-96266692D01*
X116257009Y-96247222D01*
X116257011Y-96247221D01*
X116257012Y-96247220D01*
X116413533Y-96163557D01*
X116472302Y-96145730D01*
X116583373Y-96112037D01*
X116649558Y-96105518D01*
X116715740Y-96099000D01*
X116804260Y-96099000D01*
X116870442Y-96105518D01*
X116870442Y-96105518D01*
G37*
G36*
X132110442Y-96105518D02*
X132176627Y-96112037D01*
X132287698Y-96145730D01*
X132346467Y-96163557D01*
X132502988Y-96247220D01*
X132502989Y-96247221D01*
X132502991Y-96247222D01*
X132526715Y-96266692D01*
X132640186Y-96359814D01*
X132723448Y-96461271D01*
X132752778Y-96497009D01*
X132752779Y-96497011D01*
X132836443Y-96653533D01*
X132836443Y-96653534D01*
X132887963Y-96823373D01*
X132905359Y-97000000D01*
X132887963Y-97176627D01*
X132853616Y-97289853D01*
X132836443Y-97346467D01*
X132762348Y-97485087D01*
X132752778Y-97502991D01*
X132723448Y-97538729D01*
X132640186Y-97640186D01*
X132538729Y-97723448D01*
X132502991Y-97752778D01*
X132502989Y-97752779D01*
X132346467Y-97836443D01*
X132289853Y-97853616D01*
X132176627Y-97887963D01*
X132110442Y-97894482D01*
X132044260Y-97901000D01*
X131955740Y-97901000D01*
X131889557Y-97894481D01*
X131823373Y-97887963D01*
X131710147Y-97853616D01*
X131653533Y-97836443D01*
X131497011Y-97752779D01*
X131497009Y-97752778D01*
X131461271Y-97723448D01*
X131359814Y-97640186D01*
X131276552Y-97538729D01*
X131247222Y-97502991D01*
X131237652Y-97485087D01*
X131163557Y-97346467D01*
X131146384Y-97289853D01*
X131112037Y-97176627D01*
X131094641Y-97000000D01*
X131112037Y-96823373D01*
X131163557Y-96653534D01*
X131163557Y-96653533D01*
X131247221Y-96497011D01*
X131247222Y-96497009D01*
X131276552Y-96461271D01*
X131359814Y-96359814D01*
X131473285Y-96266692D01*
X131497009Y-96247222D01*
X131497011Y-96247221D01*
X131497012Y-96247220D01*
X131653533Y-96163557D01*
X131712302Y-96145730D01*
X131823373Y-96112037D01*
X131889558Y-96105518D01*
X131955740Y-96099000D01*
X132044260Y-96099000D01*
X132110442Y-96105518D01*
X132110442Y-96105518D01*
G37*
G36*
X158380506Y-95019157D02*
X158418193Y-95030590D01*
X158452932Y-95049158D01*
X158483377Y-95074144D01*
X158508363Y-95104589D01*
X158526931Y-95139328D01*
X158538364Y-95177015D01*
X158542829Y-95222353D01*
X158542829Y-96059031D01*
X158538364Y-96104369D01*
X158526931Y-96142056D01*
X158508363Y-96176795D01*
X158483377Y-96207240D01*
X158452932Y-96232226D01*
X158418193Y-96250794D01*
X158380506Y-96262227D01*
X158335168Y-96266692D01*
X157248490Y-96266692D01*
X157203152Y-96262227D01*
X157165465Y-96250794D01*
X157130726Y-96232226D01*
X157100281Y-96207240D01*
X157075295Y-96176795D01*
X157056727Y-96142056D01*
X157045294Y-96104369D01*
X157040829Y-96059031D01*
X157040829Y-95222353D01*
X157045294Y-95177015D01*
X157056727Y-95139328D01*
X157075295Y-95104589D01*
X157100281Y-95074144D01*
X157130726Y-95049158D01*
X157165465Y-95030590D01*
X157203152Y-95019157D01*
X157248490Y-95014692D01*
X158335168Y-95014692D01*
X158380506Y-95019157D01*
X158380506Y-95019157D01*
G37*
G36*
X116870443Y-93565519D02*
X116936627Y-93572037D01*
X117049853Y-93606384D01*
X117106467Y-93623557D01*
X117245087Y-93697652D01*
X117262991Y-93707222D01*
X117298729Y-93736552D01*
X117400186Y-93819814D01*
X117483448Y-93921271D01*
X117512778Y-93957009D01*
X117512779Y-93957011D01*
X117596443Y-94113533D01*
X117609701Y-94157240D01*
X117647963Y-94283373D01*
X117665359Y-94460000D01*
X117647963Y-94636627D01*
X117613616Y-94749853D01*
X117596443Y-94806467D01*
X117522348Y-94945087D01*
X117512778Y-94962991D01*
X117483448Y-94998729D01*
X117400186Y-95100186D01*
X117306568Y-95177015D01*
X117262991Y-95212778D01*
X117262989Y-95212779D01*
X117106467Y-95296443D01*
X117049853Y-95313616D01*
X116936627Y-95347963D01*
X116870443Y-95354481D01*
X116804260Y-95361000D01*
X116715740Y-95361000D01*
X116649558Y-95354482D01*
X116583373Y-95347963D01*
X116470147Y-95313616D01*
X116413533Y-95296443D01*
X116257011Y-95212779D01*
X116257009Y-95212778D01*
X116213432Y-95177015D01*
X116119814Y-95100186D01*
X116036552Y-94998729D01*
X116007222Y-94962991D01*
X115997652Y-94945087D01*
X115923557Y-94806467D01*
X115906384Y-94749853D01*
X115872037Y-94636627D01*
X115854641Y-94460000D01*
X115872037Y-94283373D01*
X115910299Y-94157240D01*
X115923557Y-94113533D01*
X116007221Y-93957011D01*
X116007222Y-93957009D01*
X116036552Y-93921271D01*
X116119814Y-93819814D01*
X116221271Y-93736552D01*
X116257009Y-93707222D01*
X116274913Y-93697652D01*
X116413533Y-93623557D01*
X116470147Y-93606384D01*
X116583373Y-93572037D01*
X116649557Y-93565519D01*
X116715740Y-93559000D01*
X116804260Y-93559000D01*
X116870443Y-93565519D01*
X116870443Y-93565519D01*
G37*
G36*
X132110443Y-93565519D02*
X132176627Y-93572037D01*
X132289853Y-93606384D01*
X132346467Y-93623557D01*
X132485087Y-93697652D01*
X132502991Y-93707222D01*
X132538729Y-93736552D01*
X132640186Y-93819814D01*
X132723448Y-93921271D01*
X132752778Y-93957009D01*
X132752779Y-93957011D01*
X132836443Y-94113533D01*
X132849701Y-94157240D01*
X132887963Y-94283373D01*
X132905359Y-94460000D01*
X132887963Y-94636627D01*
X132853616Y-94749853D01*
X132836443Y-94806467D01*
X132762348Y-94945087D01*
X132752778Y-94962991D01*
X132723448Y-94998729D01*
X132640186Y-95100186D01*
X132546568Y-95177015D01*
X132502991Y-95212778D01*
X132502989Y-95212779D01*
X132346467Y-95296443D01*
X132289853Y-95313616D01*
X132176627Y-95347963D01*
X132110443Y-95354481D01*
X132044260Y-95361000D01*
X131955740Y-95361000D01*
X131889558Y-95354482D01*
X131823373Y-95347963D01*
X131710147Y-95313616D01*
X131653533Y-95296443D01*
X131497011Y-95212779D01*
X131497009Y-95212778D01*
X131453432Y-95177015D01*
X131359814Y-95100186D01*
X131276552Y-94998729D01*
X131247222Y-94962991D01*
X131237652Y-94945087D01*
X131163557Y-94806467D01*
X131146384Y-94749853D01*
X131112037Y-94636627D01*
X131094641Y-94460000D01*
X131112037Y-94283373D01*
X131150299Y-94157240D01*
X131163557Y-94113533D01*
X131247221Y-93957011D01*
X131247222Y-93957009D01*
X131276552Y-93921271D01*
X131359814Y-93819814D01*
X131461271Y-93736552D01*
X131497009Y-93707222D01*
X131514913Y-93697652D01*
X131653533Y-93623557D01*
X131710147Y-93606384D01*
X131823373Y-93572037D01*
X131889557Y-93565519D01*
X131955740Y-93559000D01*
X132044260Y-93559000D01*
X132110443Y-93565519D01*
X132110443Y-93565519D01*
G37*
G36*
X148242829Y-94471693D02*
X146340829Y-94471693D01*
X146340829Y-92569693D01*
X148242829Y-92569693D01*
X148242829Y-94471693D01*
X148242829Y-94471693D01*
G37*
G36*
X144609225Y-92606239D02*
X144782295Y-92677927D01*
X144938059Y-92782005D01*
X145070517Y-92914463D01*
X145174595Y-93070227D01*
X145246283Y-93243297D01*
X145282829Y-93427026D01*
X145282829Y-93614360D01*
X145246283Y-93798089D01*
X145174595Y-93971159D01*
X145070517Y-94126923D01*
X144938059Y-94259381D01*
X144782295Y-94363459D01*
X144609225Y-94435147D01*
X144425496Y-94471693D01*
X144238162Y-94471693D01*
X144054433Y-94435147D01*
X143881363Y-94363459D01*
X143725599Y-94259381D01*
X143593141Y-94126923D01*
X143489063Y-93971159D01*
X143417375Y-93798089D01*
X143380829Y-93614360D01*
X143380829Y-93427026D01*
X143417375Y-93243297D01*
X143489063Y-93070227D01*
X143593141Y-92914463D01*
X143725599Y-92782005D01*
X143881363Y-92677927D01*
X144054433Y-92606239D01*
X144238162Y-92569693D01*
X144425496Y-92569693D01*
X144609225Y-92606239D01*
X144609225Y-92606239D01*
G37*
G36*
X142742829Y-94471693D02*
X140840829Y-94471693D01*
X140840829Y-92569693D01*
X142742829Y-92569693D01*
X142742829Y-94471693D01*
X142742829Y-94471693D01*
G37*
G36*
X150109225Y-92606239D02*
X150282295Y-92677927D01*
X150438059Y-92782005D01*
X150570517Y-92914463D01*
X150674595Y-93070227D01*
X150746283Y-93243297D01*
X150782829Y-93427026D01*
X150782829Y-93614360D01*
X150746283Y-93798089D01*
X150674595Y-93971159D01*
X150570517Y-94126923D01*
X150438059Y-94259381D01*
X150282295Y-94363459D01*
X150109225Y-94435147D01*
X149925496Y-94471693D01*
X149738162Y-94471693D01*
X149554433Y-94435147D01*
X149381363Y-94363459D01*
X149225599Y-94259381D01*
X149093141Y-94126923D01*
X148989063Y-93971159D01*
X148917375Y-93798089D01*
X148880829Y-93614360D01*
X148880829Y-93427026D01*
X148917375Y-93243297D01*
X148989063Y-93070227D01*
X149093141Y-92914463D01*
X149225599Y-92782005D01*
X149381363Y-92677927D01*
X149554433Y-92606239D01*
X149738162Y-92569693D01*
X149925496Y-92569693D01*
X150109225Y-92606239D01*
X150109225Y-92606239D01*
G37*
G36*
X155609225Y-92606239D02*
X155782295Y-92677927D01*
X155938059Y-92782005D01*
X156070517Y-92914463D01*
X156174595Y-93070227D01*
X156246283Y-93243297D01*
X156282829Y-93427026D01*
X156282829Y-93614360D01*
X156246283Y-93798089D01*
X156174595Y-93971159D01*
X156070517Y-94126923D01*
X155938059Y-94259381D01*
X155782295Y-94363459D01*
X155609225Y-94435147D01*
X155425496Y-94471693D01*
X155238162Y-94471693D01*
X155054433Y-94435147D01*
X154881363Y-94363459D01*
X154725599Y-94259381D01*
X154593141Y-94126923D01*
X154489063Y-93971159D01*
X154417375Y-93798089D01*
X154380829Y-93614360D01*
X154380829Y-93427026D01*
X154417375Y-93243297D01*
X154489063Y-93070227D01*
X154593141Y-92914463D01*
X154725599Y-92782005D01*
X154881363Y-92677927D01*
X155054433Y-92606239D01*
X155238162Y-92569693D01*
X155425496Y-92569693D01*
X155609225Y-92606239D01*
X155609225Y-92606239D01*
G37*
G36*
X153742829Y-94471693D02*
X151840829Y-94471693D01*
X151840829Y-92569693D01*
X153742829Y-92569693D01*
X153742829Y-94471693D01*
X153742829Y-94471693D01*
G37*
G36*
X158380506Y-92969157D02*
X158418193Y-92980590D01*
X158452932Y-92999158D01*
X158483377Y-93024144D01*
X158508363Y-93054589D01*
X158526931Y-93089328D01*
X158538364Y-93127015D01*
X158542829Y-93172353D01*
X158542829Y-94009031D01*
X158538364Y-94054369D01*
X158526931Y-94092056D01*
X158508363Y-94126795D01*
X158483377Y-94157240D01*
X158452932Y-94182226D01*
X158418193Y-94200794D01*
X158380506Y-94212227D01*
X158335168Y-94216692D01*
X157248490Y-94216692D01*
X157203152Y-94212227D01*
X157165465Y-94200794D01*
X157130726Y-94182226D01*
X157100281Y-94157240D01*
X157075295Y-94126795D01*
X157056727Y-94092056D01*
X157045294Y-94054369D01*
X157040829Y-94009031D01*
X157040829Y-93172353D01*
X157045294Y-93127015D01*
X157056727Y-93089328D01*
X157075295Y-93054589D01*
X157100281Y-93024144D01*
X157130726Y-92999158D01*
X157165465Y-92980590D01*
X157203152Y-92969157D01*
X157248490Y-92964692D01*
X158335168Y-92964692D01*
X158380506Y-92969157D01*
X158380506Y-92969157D01*
G37*
G36*
X116870443Y-91025519D02*
X116936627Y-91032037D01*
X117049853Y-91066384D01*
X117106467Y-91083557D01*
X117245087Y-91157652D01*
X117262991Y-91167222D01*
X117298729Y-91196552D01*
X117400186Y-91279814D01*
X117483448Y-91381271D01*
X117512778Y-91417009D01*
X117512779Y-91417011D01*
X117596443Y-91573533D01*
X117596443Y-91573534D01*
X117647963Y-91743373D01*
X117665359Y-91920000D01*
X117647963Y-92096627D01*
X117613616Y-92209853D01*
X117596443Y-92266467D01*
X117522348Y-92405087D01*
X117512778Y-92422991D01*
X117483448Y-92458729D01*
X117400186Y-92560186D01*
X117298729Y-92643448D01*
X117262991Y-92672778D01*
X117262989Y-92672779D01*
X117106467Y-92756443D01*
X117049853Y-92773616D01*
X116936627Y-92807963D01*
X116870442Y-92814482D01*
X116804260Y-92821000D01*
X116715740Y-92821000D01*
X116649558Y-92814482D01*
X116583373Y-92807963D01*
X116470147Y-92773616D01*
X116413533Y-92756443D01*
X116257011Y-92672779D01*
X116257009Y-92672778D01*
X116221271Y-92643448D01*
X116119814Y-92560186D01*
X116036552Y-92458729D01*
X116007222Y-92422991D01*
X115997652Y-92405087D01*
X115923557Y-92266467D01*
X115906384Y-92209853D01*
X115872037Y-92096627D01*
X115854641Y-91920000D01*
X115872037Y-91743373D01*
X115923557Y-91573534D01*
X115923557Y-91573533D01*
X116007221Y-91417011D01*
X116007222Y-91417009D01*
X116036552Y-91381271D01*
X116119814Y-91279814D01*
X116221271Y-91196552D01*
X116257009Y-91167222D01*
X116274913Y-91157652D01*
X116413533Y-91083557D01*
X116470147Y-91066384D01*
X116583373Y-91032037D01*
X116649557Y-91025519D01*
X116715740Y-91019000D01*
X116804260Y-91019000D01*
X116870443Y-91025519D01*
X116870443Y-91025519D01*
G37*
G36*
X132110443Y-91025519D02*
X132176627Y-91032037D01*
X132289853Y-91066384D01*
X132346467Y-91083557D01*
X132485087Y-91157652D01*
X132502991Y-91167222D01*
X132538729Y-91196552D01*
X132640186Y-91279814D01*
X132723448Y-91381271D01*
X132752778Y-91417009D01*
X132752779Y-91417011D01*
X132836443Y-91573533D01*
X132836443Y-91573534D01*
X132887963Y-91743373D01*
X132905359Y-91920000D01*
X132887963Y-92096627D01*
X132853616Y-92209853D01*
X132836443Y-92266467D01*
X132762348Y-92405087D01*
X132752778Y-92422991D01*
X132723448Y-92458729D01*
X132640186Y-92560186D01*
X132538729Y-92643448D01*
X132502991Y-92672778D01*
X132502989Y-92672779D01*
X132346467Y-92756443D01*
X132289853Y-92773616D01*
X132176627Y-92807963D01*
X132110442Y-92814482D01*
X132044260Y-92821000D01*
X131955740Y-92821000D01*
X131889558Y-92814482D01*
X131823373Y-92807963D01*
X131710147Y-92773616D01*
X131653533Y-92756443D01*
X131497011Y-92672779D01*
X131497009Y-92672778D01*
X131461271Y-92643448D01*
X131359814Y-92560186D01*
X131276552Y-92458729D01*
X131247222Y-92422991D01*
X131237652Y-92405087D01*
X131163557Y-92266467D01*
X131146384Y-92209853D01*
X131112037Y-92096627D01*
X131094641Y-91920000D01*
X131112037Y-91743373D01*
X131163557Y-91573534D01*
X131163557Y-91573533D01*
X131247221Y-91417011D01*
X131247222Y-91417009D01*
X131276552Y-91381271D01*
X131359814Y-91279814D01*
X131461271Y-91196552D01*
X131497009Y-91167222D01*
X131514913Y-91157652D01*
X131653533Y-91083557D01*
X131710147Y-91066384D01*
X131823373Y-91032037D01*
X131889557Y-91025519D01*
X131955740Y-91019000D01*
X132044260Y-91019000D01*
X132110443Y-91025519D01*
X132110443Y-91025519D01*
G37*
G36*
X150280506Y-88869157D02*
X150318193Y-88880590D01*
X150352932Y-88899158D01*
X150383377Y-88924144D01*
X150408363Y-88954589D01*
X150426931Y-88989328D01*
X150438364Y-89027015D01*
X150442829Y-89072353D01*
X150442829Y-90159031D01*
X150438364Y-90204369D01*
X150426931Y-90242056D01*
X150408363Y-90276795D01*
X150383377Y-90307240D01*
X150352932Y-90332226D01*
X150318193Y-90350794D01*
X150280506Y-90362227D01*
X150235168Y-90366692D01*
X149398490Y-90366692D01*
X149353152Y-90362227D01*
X149315465Y-90350794D01*
X149280726Y-90332226D01*
X149250281Y-90307240D01*
X149225295Y-90276795D01*
X149206727Y-90242056D01*
X149195294Y-90204369D01*
X149190829Y-90159031D01*
X149190829Y-89072353D01*
X149195294Y-89027015D01*
X149206727Y-88989328D01*
X149225295Y-88954589D01*
X149250281Y-88924144D01*
X149280726Y-88899158D01*
X149315465Y-88880590D01*
X149353152Y-88869157D01*
X149398490Y-88864692D01*
X150235168Y-88864692D01*
X150280506Y-88869157D01*
X150280506Y-88869157D01*
G37*
G36*
X148230506Y-88869157D02*
X148268193Y-88880590D01*
X148302932Y-88899158D01*
X148333377Y-88924144D01*
X148358363Y-88954589D01*
X148376931Y-88989328D01*
X148388364Y-89027015D01*
X148392829Y-89072353D01*
X148392829Y-90159031D01*
X148388364Y-90204369D01*
X148376931Y-90242056D01*
X148358363Y-90276795D01*
X148333377Y-90307240D01*
X148302932Y-90332226D01*
X148268193Y-90350794D01*
X148230506Y-90362227D01*
X148185168Y-90366692D01*
X147348490Y-90366692D01*
X147303152Y-90362227D01*
X147265465Y-90350794D01*
X147230726Y-90332226D01*
X147200281Y-90307240D01*
X147175295Y-90276795D01*
X147156727Y-90242056D01*
X147145294Y-90204369D01*
X147140829Y-90159031D01*
X147140829Y-89072353D01*
X147145294Y-89027015D01*
X147156727Y-88989328D01*
X147175295Y-88954589D01*
X147200281Y-88924144D01*
X147230726Y-88899158D01*
X147265465Y-88880590D01*
X147303152Y-88869157D01*
X147348490Y-88864692D01*
X148185168Y-88864692D01*
X148230506Y-88869157D01*
X148230506Y-88869157D01*
G37*
G36*
X116870442Y-88485518D02*
X116936627Y-88492037D01*
X117049853Y-88526384D01*
X117106467Y-88543557D01*
X117245087Y-88617652D01*
X117262991Y-88627222D01*
X117298729Y-88656552D01*
X117400186Y-88739814D01*
X117481500Y-88838897D01*
X117512778Y-88877009D01*
X117512779Y-88877011D01*
X117596443Y-89033533D01*
X117596443Y-89033534D01*
X117647963Y-89203373D01*
X117665359Y-89380000D01*
X117647963Y-89556627D01*
X117613616Y-89669853D01*
X117596443Y-89726467D01*
X117522348Y-89865087D01*
X117512778Y-89882991D01*
X117483448Y-89918729D01*
X117400186Y-90020186D01*
X117298729Y-90103448D01*
X117262991Y-90132778D01*
X117262989Y-90132779D01*
X117106467Y-90216443D01*
X117060845Y-90230282D01*
X116936627Y-90267963D01*
X116870442Y-90274482D01*
X116804260Y-90281000D01*
X116715740Y-90281000D01*
X116649558Y-90274482D01*
X116583373Y-90267963D01*
X116459155Y-90230282D01*
X116413533Y-90216443D01*
X116257011Y-90132779D01*
X116257009Y-90132778D01*
X116221271Y-90103448D01*
X116119814Y-90020186D01*
X116036552Y-89918729D01*
X116007222Y-89882991D01*
X115997652Y-89865087D01*
X115923557Y-89726467D01*
X115906384Y-89669853D01*
X115872037Y-89556627D01*
X115854641Y-89380000D01*
X115872037Y-89203373D01*
X115923557Y-89033534D01*
X115923557Y-89033533D01*
X116007221Y-88877011D01*
X116007222Y-88877009D01*
X116038500Y-88838897D01*
X116119814Y-88739814D01*
X116221271Y-88656552D01*
X116257009Y-88627222D01*
X116274913Y-88617652D01*
X116413533Y-88543557D01*
X116470147Y-88526384D01*
X116583373Y-88492037D01*
X116649558Y-88485518D01*
X116715740Y-88479000D01*
X116804260Y-88479000D01*
X116870442Y-88485518D01*
X116870442Y-88485518D01*
G37*
G36*
X132110442Y-88485518D02*
X132176627Y-88492037D01*
X132289853Y-88526384D01*
X132346467Y-88543557D01*
X132485087Y-88617652D01*
X132502991Y-88627222D01*
X132538729Y-88656552D01*
X132640186Y-88739814D01*
X132721500Y-88838897D01*
X132752778Y-88877009D01*
X132752779Y-88877011D01*
X132836443Y-89033533D01*
X132836443Y-89033534D01*
X132887963Y-89203373D01*
X132905359Y-89380000D01*
X132887963Y-89556627D01*
X132853616Y-89669853D01*
X132836443Y-89726467D01*
X132762348Y-89865087D01*
X132752778Y-89882991D01*
X132723448Y-89918729D01*
X132640186Y-90020186D01*
X132538729Y-90103448D01*
X132502991Y-90132778D01*
X132502989Y-90132779D01*
X132346467Y-90216443D01*
X132300845Y-90230282D01*
X132176627Y-90267963D01*
X132110442Y-90274482D01*
X132044260Y-90281000D01*
X131955740Y-90281000D01*
X131889558Y-90274482D01*
X131823373Y-90267963D01*
X131699155Y-90230282D01*
X131653533Y-90216443D01*
X131497011Y-90132779D01*
X131497009Y-90132778D01*
X131461271Y-90103448D01*
X131359814Y-90020186D01*
X131276552Y-89918729D01*
X131247222Y-89882991D01*
X131237652Y-89865087D01*
X131163557Y-89726467D01*
X131146384Y-89669853D01*
X131112037Y-89556627D01*
X131094641Y-89380000D01*
X131112037Y-89203373D01*
X131163557Y-89033534D01*
X131163557Y-89033533D01*
X131247221Y-88877011D01*
X131247222Y-88877009D01*
X131278500Y-88838897D01*
X131359814Y-88739814D01*
X131461271Y-88656552D01*
X131497009Y-88627222D01*
X131514913Y-88617652D01*
X131653533Y-88543557D01*
X131710147Y-88526384D01*
X131823373Y-88492037D01*
X131889558Y-88485518D01*
X131955740Y-88479000D01*
X132044260Y-88479000D01*
X132110442Y-88485518D01*
X132110442Y-88485518D01*
G37*
G36*
X144488677Y-88753465D02*
X144526364Y-88764898D01*
X144561103Y-88783466D01*
X144591548Y-88808452D01*
X144616534Y-88838897D01*
X144635102Y-88873636D01*
X144646535Y-88911323D01*
X144651000Y-88956661D01*
X144651000Y-90043339D01*
X144646535Y-90088677D01*
X144635102Y-90126364D01*
X144616534Y-90161103D01*
X144591548Y-90191548D01*
X144561103Y-90216534D01*
X144526364Y-90235102D01*
X144488677Y-90246535D01*
X144443339Y-90251000D01*
X143606661Y-90251000D01*
X143561323Y-90246535D01*
X143523636Y-90235102D01*
X143488897Y-90216534D01*
X143458452Y-90191548D01*
X143433466Y-90161103D01*
X143414898Y-90126364D01*
X143403465Y-90088677D01*
X143399000Y-90043339D01*
X143399000Y-88956661D01*
X143403465Y-88911323D01*
X143414898Y-88873636D01*
X143433466Y-88838897D01*
X143458452Y-88808452D01*
X143488897Y-88783466D01*
X143523636Y-88764898D01*
X143561323Y-88753465D01*
X143606661Y-88749000D01*
X144443339Y-88749000D01*
X144488677Y-88753465D01*
X144488677Y-88753465D01*
G37*
G36*
X142438677Y-88753465D02*
X142476364Y-88764898D01*
X142511103Y-88783466D01*
X142541548Y-88808452D01*
X142566534Y-88838897D01*
X142585102Y-88873636D01*
X142596535Y-88911323D01*
X142601000Y-88956661D01*
X142601000Y-90043339D01*
X142596535Y-90088677D01*
X142585102Y-90126364D01*
X142566534Y-90161103D01*
X142541548Y-90191548D01*
X142511103Y-90216534D01*
X142476364Y-90235102D01*
X142438677Y-90246535D01*
X142393339Y-90251000D01*
X141556661Y-90251000D01*
X141511323Y-90246535D01*
X141473636Y-90235102D01*
X141438897Y-90216534D01*
X141408452Y-90191548D01*
X141383466Y-90161103D01*
X141364898Y-90126364D01*
X141353465Y-90088677D01*
X141349000Y-90043339D01*
X141349000Y-88956661D01*
X141353465Y-88911323D01*
X141364898Y-88873636D01*
X141383466Y-88838897D01*
X141408452Y-88808452D01*
X141438897Y-88783466D01*
X141473636Y-88764898D01*
X141511323Y-88753465D01*
X141556661Y-88749000D01*
X142393339Y-88749000D01*
X142438677Y-88753465D01*
X142438677Y-88753465D01*
G37*
G36*
X116870442Y-85945518D02*
X116936627Y-85952037D01*
X117049853Y-85986384D01*
X117106467Y-86003557D01*
X117245087Y-86077652D01*
X117262991Y-86087222D01*
X117298729Y-86116552D01*
X117400186Y-86199814D01*
X117483448Y-86301271D01*
X117512778Y-86337009D01*
X117512779Y-86337011D01*
X117596443Y-86493533D01*
X117596443Y-86493534D01*
X117647963Y-86663373D01*
X117665359Y-86840000D01*
X117647963Y-87016627D01*
X117613616Y-87129853D01*
X117596443Y-87186467D01*
X117522348Y-87325087D01*
X117512778Y-87342991D01*
X117483448Y-87378729D01*
X117400186Y-87480186D01*
X117298729Y-87563448D01*
X117262991Y-87592778D01*
X117262989Y-87592779D01*
X117106467Y-87676443D01*
X117049853Y-87693616D01*
X116936627Y-87727963D01*
X116870443Y-87734481D01*
X116804260Y-87741000D01*
X116715740Y-87741000D01*
X116649557Y-87734481D01*
X116583373Y-87727963D01*
X116470147Y-87693616D01*
X116413533Y-87676443D01*
X116257011Y-87592779D01*
X116257009Y-87592778D01*
X116221271Y-87563448D01*
X116119814Y-87480186D01*
X116036552Y-87378729D01*
X116007222Y-87342991D01*
X115997652Y-87325087D01*
X115923557Y-87186467D01*
X115906384Y-87129853D01*
X115872037Y-87016627D01*
X115854641Y-86840000D01*
X115872037Y-86663373D01*
X115923557Y-86493534D01*
X115923557Y-86493533D01*
X116007221Y-86337011D01*
X116007222Y-86337009D01*
X116036552Y-86301271D01*
X116119814Y-86199814D01*
X116221271Y-86116552D01*
X116257009Y-86087222D01*
X116274913Y-86077652D01*
X116413533Y-86003557D01*
X116470147Y-85986384D01*
X116583373Y-85952037D01*
X116649558Y-85945518D01*
X116715740Y-85939000D01*
X116804260Y-85939000D01*
X116870442Y-85945518D01*
X116870442Y-85945518D01*
G37*
G36*
X132110442Y-85945518D02*
X132176627Y-85952037D01*
X132289853Y-85986384D01*
X132346467Y-86003557D01*
X132485087Y-86077652D01*
X132502991Y-86087222D01*
X132538729Y-86116552D01*
X132640186Y-86199814D01*
X132723448Y-86301271D01*
X132752778Y-86337009D01*
X132752779Y-86337011D01*
X132836443Y-86493533D01*
X132836443Y-86493534D01*
X132887963Y-86663373D01*
X132905359Y-86840000D01*
X132887963Y-87016627D01*
X132853616Y-87129853D01*
X132836443Y-87186467D01*
X132762348Y-87325087D01*
X132752778Y-87342991D01*
X132723448Y-87378729D01*
X132640186Y-87480186D01*
X132538729Y-87563448D01*
X132502991Y-87592778D01*
X132502989Y-87592779D01*
X132346467Y-87676443D01*
X132289853Y-87693616D01*
X132176627Y-87727963D01*
X132110443Y-87734481D01*
X132044260Y-87741000D01*
X131955740Y-87741000D01*
X131889557Y-87734481D01*
X131823373Y-87727963D01*
X131710147Y-87693616D01*
X131653533Y-87676443D01*
X131497011Y-87592779D01*
X131497009Y-87592778D01*
X131461271Y-87563448D01*
X131359814Y-87480186D01*
X131276552Y-87378729D01*
X131247222Y-87342991D01*
X131237652Y-87325087D01*
X131163557Y-87186467D01*
X131146384Y-87129853D01*
X131112037Y-87016627D01*
X131094641Y-86840000D01*
X131112037Y-86663373D01*
X131163557Y-86493534D01*
X131163557Y-86493533D01*
X131247221Y-86337011D01*
X131247222Y-86337009D01*
X131276552Y-86301271D01*
X131359814Y-86199814D01*
X131461271Y-86116552D01*
X131497009Y-86087222D01*
X131514913Y-86077652D01*
X131653533Y-86003557D01*
X131710147Y-85986384D01*
X131823373Y-85952037D01*
X131889558Y-85945518D01*
X131955740Y-85939000D01*
X132044260Y-85939000D01*
X132110442Y-85945518D01*
X132110442Y-85945518D01*
G37*
G36*
X116870443Y-83405519D02*
X116936627Y-83412037D01*
X117049853Y-83446384D01*
X117106467Y-83463557D01*
X117245087Y-83537652D01*
X117262991Y-83547222D01*
X117298729Y-83576552D01*
X117400186Y-83659814D01*
X117483448Y-83761271D01*
X117512778Y-83797009D01*
X117512779Y-83797011D01*
X117596443Y-83953533D01*
X117596443Y-83953534D01*
X117647963Y-84123373D01*
X117665359Y-84300000D01*
X117647963Y-84476627D01*
X117613616Y-84589853D01*
X117596443Y-84646467D01*
X117522348Y-84785087D01*
X117512778Y-84802991D01*
X117483448Y-84838729D01*
X117400186Y-84940186D01*
X117298729Y-85023448D01*
X117262991Y-85052778D01*
X117262989Y-85052779D01*
X117106467Y-85136443D01*
X117049853Y-85153616D01*
X116936627Y-85187963D01*
X116870442Y-85194482D01*
X116804260Y-85201000D01*
X116715740Y-85201000D01*
X116649558Y-85194482D01*
X116583373Y-85187963D01*
X116470147Y-85153616D01*
X116413533Y-85136443D01*
X116257011Y-85052779D01*
X116257009Y-85052778D01*
X116221271Y-85023448D01*
X116119814Y-84940186D01*
X116036552Y-84838729D01*
X116007222Y-84802991D01*
X115997652Y-84785087D01*
X115923557Y-84646467D01*
X115906384Y-84589853D01*
X115872037Y-84476627D01*
X115854641Y-84300000D01*
X115872037Y-84123373D01*
X115923557Y-83953534D01*
X115923557Y-83953533D01*
X116007221Y-83797011D01*
X116007222Y-83797009D01*
X116036552Y-83761271D01*
X116119814Y-83659814D01*
X116221271Y-83576552D01*
X116257009Y-83547222D01*
X116274913Y-83537652D01*
X116413533Y-83463557D01*
X116470147Y-83446384D01*
X116583373Y-83412037D01*
X116649557Y-83405519D01*
X116715740Y-83399000D01*
X116804260Y-83399000D01*
X116870443Y-83405519D01*
X116870443Y-83405519D01*
G37*
G36*
X132110443Y-83405519D02*
X132176627Y-83412037D01*
X132289853Y-83446384D01*
X132346467Y-83463557D01*
X132485087Y-83537652D01*
X132502991Y-83547222D01*
X132538729Y-83576552D01*
X132640186Y-83659814D01*
X132723448Y-83761271D01*
X132752778Y-83797009D01*
X132752779Y-83797011D01*
X132836443Y-83953533D01*
X132836443Y-83953534D01*
X132887963Y-84123373D01*
X132905359Y-84300000D01*
X132887963Y-84476627D01*
X132853616Y-84589853D01*
X132836443Y-84646467D01*
X132762348Y-84785087D01*
X132752778Y-84802991D01*
X132723448Y-84838729D01*
X132640186Y-84940186D01*
X132538729Y-85023448D01*
X132502991Y-85052778D01*
X132502989Y-85052779D01*
X132346467Y-85136443D01*
X132289853Y-85153616D01*
X132176627Y-85187963D01*
X132110442Y-85194482D01*
X132044260Y-85201000D01*
X131955740Y-85201000D01*
X131889558Y-85194482D01*
X131823373Y-85187963D01*
X131710147Y-85153616D01*
X131653533Y-85136443D01*
X131497011Y-85052779D01*
X131497009Y-85052778D01*
X131461271Y-85023448D01*
X131359814Y-84940186D01*
X131276552Y-84838729D01*
X131247222Y-84802991D01*
X131237652Y-84785087D01*
X131163557Y-84646467D01*
X131146384Y-84589853D01*
X131112037Y-84476627D01*
X131094641Y-84300000D01*
X131112037Y-84123373D01*
X131163557Y-83953534D01*
X131163557Y-83953533D01*
X131247221Y-83797011D01*
X131247222Y-83797009D01*
X131276552Y-83761271D01*
X131359814Y-83659814D01*
X131461271Y-83576552D01*
X131497009Y-83547222D01*
X131514913Y-83537652D01*
X131653533Y-83463557D01*
X131710147Y-83446384D01*
X131823373Y-83412037D01*
X131889557Y-83405519D01*
X131955740Y-83399000D01*
X132044260Y-83399000D01*
X132110443Y-83405519D01*
X132110443Y-83405519D01*
G37*
G36*
X142938677Y-81253465D02*
X142976364Y-81264898D01*
X143011103Y-81283466D01*
X143041548Y-81308452D01*
X143066534Y-81338897D01*
X143085102Y-81373636D01*
X143096535Y-81411323D01*
X143101000Y-81456661D01*
X143101000Y-82543339D01*
X143096535Y-82588677D01*
X143085102Y-82626364D01*
X143066534Y-82661103D01*
X143041548Y-82691548D01*
X143011103Y-82716534D01*
X142976364Y-82735102D01*
X142938677Y-82746535D01*
X142893339Y-82751000D01*
X142056661Y-82751000D01*
X142011323Y-82746535D01*
X141973636Y-82735102D01*
X141938897Y-82716534D01*
X141908452Y-82691548D01*
X141883466Y-82661103D01*
X141864898Y-82626364D01*
X141853465Y-82588677D01*
X141849000Y-82543339D01*
X141849000Y-81456661D01*
X141853465Y-81411323D01*
X141864898Y-81373636D01*
X141883466Y-81338897D01*
X141908452Y-81308452D01*
X141938897Y-81283466D01*
X141973636Y-81264898D01*
X142011323Y-81253465D01*
X142056661Y-81249000D01*
X142893339Y-81249000D01*
X142938677Y-81253465D01*
X142938677Y-81253465D01*
G37*
G36*
X144988677Y-81253465D02*
X145026364Y-81264898D01*
X145061103Y-81283466D01*
X145091548Y-81308452D01*
X145116534Y-81338897D01*
X145135102Y-81373636D01*
X145146535Y-81411323D01*
X145151000Y-81456661D01*
X145151000Y-82543339D01*
X145146535Y-82588677D01*
X145135102Y-82626364D01*
X145116534Y-82661103D01*
X145091548Y-82691548D01*
X145061103Y-82716534D01*
X145026364Y-82735102D01*
X144988677Y-82746535D01*
X144943339Y-82751000D01*
X144106661Y-82751000D01*
X144061323Y-82746535D01*
X144023636Y-82735102D01*
X143988897Y-82716534D01*
X143958452Y-82691548D01*
X143933466Y-82661103D01*
X143914898Y-82626364D01*
X143903465Y-82588677D01*
X143899000Y-82543339D01*
X143899000Y-81456661D01*
X143903465Y-81411323D01*
X143914898Y-81373636D01*
X143933466Y-81338897D01*
X143958452Y-81308452D01*
X143988897Y-81283466D01*
X144023636Y-81264898D01*
X144061323Y-81253465D01*
X144106661Y-81249000D01*
X144943339Y-81249000D01*
X144988677Y-81253465D01*
X144988677Y-81253465D01*
G37*
G36*
X116870442Y-80865518D02*
X116936627Y-80872037D01*
X117049853Y-80906384D01*
X117106467Y-80923557D01*
X117168399Y-80956661D01*
X117262991Y-81007222D01*
X117279990Y-81021173D01*
X117400186Y-81119814D01*
X117483448Y-81221271D01*
X117512778Y-81257009D01*
X117512779Y-81257011D01*
X117596443Y-81413533D01*
X117596443Y-81413534D01*
X117647963Y-81583373D01*
X117665359Y-81760000D01*
X117647963Y-81936627D01*
X117619055Y-82031925D01*
X117596443Y-82106467D01*
X117527685Y-82235102D01*
X117512778Y-82262991D01*
X117483448Y-82298729D01*
X117400186Y-82400186D01*
X117304360Y-82478827D01*
X117262991Y-82512778D01*
X117262989Y-82512779D01*
X117106467Y-82596443D01*
X117049853Y-82613616D01*
X116936627Y-82647963D01*
X116870443Y-82654481D01*
X116804260Y-82661000D01*
X116715740Y-82661000D01*
X116649557Y-82654481D01*
X116583373Y-82647963D01*
X116470147Y-82613616D01*
X116413533Y-82596443D01*
X116257011Y-82512779D01*
X116257009Y-82512778D01*
X116215640Y-82478827D01*
X116119814Y-82400186D01*
X116036552Y-82298729D01*
X116007222Y-82262991D01*
X115992315Y-82235102D01*
X115923557Y-82106467D01*
X115900945Y-82031925D01*
X115872037Y-81936627D01*
X115854641Y-81760000D01*
X115872037Y-81583373D01*
X115923557Y-81413534D01*
X115923557Y-81413533D01*
X116007221Y-81257011D01*
X116007222Y-81257009D01*
X116036552Y-81221271D01*
X116119814Y-81119814D01*
X116240010Y-81021173D01*
X116257009Y-81007222D01*
X116351601Y-80956661D01*
X116413533Y-80923557D01*
X116470147Y-80906384D01*
X116583373Y-80872037D01*
X116649558Y-80865518D01*
X116715740Y-80859000D01*
X116804260Y-80859000D01*
X116870442Y-80865518D01*
X116870442Y-80865518D01*
G37*
G36*
X132110442Y-80865518D02*
X132176627Y-80872037D01*
X132289853Y-80906384D01*
X132346467Y-80923557D01*
X132408399Y-80956661D01*
X132502991Y-81007222D01*
X132519990Y-81021173D01*
X132640186Y-81119814D01*
X132723448Y-81221271D01*
X132752778Y-81257009D01*
X132752779Y-81257011D01*
X132836443Y-81413533D01*
X132836443Y-81413534D01*
X132887963Y-81583373D01*
X132905359Y-81760000D01*
X132887963Y-81936627D01*
X132859055Y-82031925D01*
X132836443Y-82106467D01*
X132767685Y-82235102D01*
X132752778Y-82262991D01*
X132723448Y-82298729D01*
X132640186Y-82400186D01*
X132544360Y-82478827D01*
X132502991Y-82512778D01*
X132502989Y-82512779D01*
X132346467Y-82596443D01*
X132289853Y-82613616D01*
X132176627Y-82647963D01*
X132110443Y-82654481D01*
X132044260Y-82661000D01*
X131955740Y-82661000D01*
X131889557Y-82654481D01*
X131823373Y-82647963D01*
X131710147Y-82613616D01*
X131653533Y-82596443D01*
X131497011Y-82512779D01*
X131497009Y-82512778D01*
X131455640Y-82478827D01*
X131359814Y-82400186D01*
X131276552Y-82298729D01*
X131247222Y-82262991D01*
X131232315Y-82235102D01*
X131163557Y-82106467D01*
X131140945Y-82031925D01*
X131112037Y-81936627D01*
X131094641Y-81760000D01*
X131112037Y-81583373D01*
X131163557Y-81413534D01*
X131163557Y-81413533D01*
X131247221Y-81257011D01*
X131247222Y-81257009D01*
X131276552Y-81221271D01*
X131359814Y-81119814D01*
X131480010Y-81021173D01*
X131497009Y-81007222D01*
X131591601Y-80956661D01*
X131653533Y-80923557D01*
X131710147Y-80906384D01*
X131823373Y-80872037D01*
X131889558Y-80865518D01*
X131955740Y-80859000D01*
X132044260Y-80859000D01*
X132110442Y-80865518D01*
X132110442Y-80865518D01*
G37*
G36*
X150488677Y-80753465D02*
X150526364Y-80764898D01*
X150561103Y-80783466D01*
X150591548Y-80808452D01*
X150616534Y-80838897D01*
X150635102Y-80873636D01*
X150646535Y-80911323D01*
X150651000Y-80956661D01*
X150651000Y-82043339D01*
X150646535Y-82088677D01*
X150635102Y-82126364D01*
X150616534Y-82161103D01*
X150591548Y-82191548D01*
X150561103Y-82216534D01*
X150526364Y-82235102D01*
X150488677Y-82246535D01*
X150443339Y-82251000D01*
X149606661Y-82251000D01*
X149561323Y-82246535D01*
X149523636Y-82235102D01*
X149488897Y-82216534D01*
X149458452Y-82191548D01*
X149433466Y-82161103D01*
X149414898Y-82126364D01*
X149403465Y-82088677D01*
X149399000Y-82043339D01*
X149399000Y-80956661D01*
X149403465Y-80911323D01*
X149414898Y-80873636D01*
X149433466Y-80838897D01*
X149458452Y-80808452D01*
X149488897Y-80783466D01*
X149523636Y-80764898D01*
X149561323Y-80753465D01*
X149606661Y-80749000D01*
X150443339Y-80749000D01*
X150488677Y-80753465D01*
X150488677Y-80753465D01*
G37*
G36*
X148438677Y-80753465D02*
X148476364Y-80764898D01*
X148511103Y-80783466D01*
X148541548Y-80808452D01*
X148566534Y-80838897D01*
X148585102Y-80873636D01*
X148596535Y-80911323D01*
X148601000Y-80956661D01*
X148601000Y-82043339D01*
X148596535Y-82088677D01*
X148585102Y-82126364D01*
X148566534Y-82161103D01*
X148541548Y-82191548D01*
X148511103Y-82216534D01*
X148476364Y-82235102D01*
X148438677Y-82246535D01*
X148393339Y-82251000D01*
X147556661Y-82251000D01*
X147511323Y-82246535D01*
X147473636Y-82235102D01*
X147438897Y-82216534D01*
X147408452Y-82191548D01*
X147383466Y-82161103D01*
X147364898Y-82126364D01*
X147353465Y-82088677D01*
X147349000Y-82043339D01*
X147349000Y-80956661D01*
X147353465Y-80911323D01*
X147364898Y-80873636D01*
X147383466Y-80838897D01*
X147408452Y-80808452D01*
X147438897Y-80783466D01*
X147473636Y-80764898D01*
X147511323Y-80753465D01*
X147556661Y-80749000D01*
X148393339Y-80749000D01*
X148438677Y-80753465D01*
X148438677Y-80753465D01*
G37*
G36*
X132110442Y-78325518D02*
X132176627Y-78332037D01*
X132289853Y-78366384D01*
X132346467Y-78383557D01*
X132471643Y-78450466D01*
X132502991Y-78467222D01*
X132538729Y-78496552D01*
X132640186Y-78579814D01*
X132723448Y-78681271D01*
X132752778Y-78717009D01*
X132752779Y-78717011D01*
X132836443Y-78873533D01*
X132836443Y-78873534D01*
X132887963Y-79043373D01*
X132905359Y-79220000D01*
X132887963Y-79396627D01*
X132853616Y-79509853D01*
X132836443Y-79566467D01*
X132762348Y-79705087D01*
X132752778Y-79722991D01*
X132723448Y-79758729D01*
X132640186Y-79860186D01*
X132538729Y-79943448D01*
X132502991Y-79972778D01*
X132502989Y-79972779D01*
X132346467Y-80056443D01*
X132289853Y-80073616D01*
X132176627Y-80107963D01*
X132110442Y-80114482D01*
X132044260Y-80121000D01*
X131955740Y-80121000D01*
X131889558Y-80114482D01*
X131823373Y-80107963D01*
X131710147Y-80073616D01*
X131653533Y-80056443D01*
X131497011Y-79972779D01*
X131497009Y-79972778D01*
X131461271Y-79943448D01*
X131359814Y-79860186D01*
X131276552Y-79758729D01*
X131247222Y-79722991D01*
X131237652Y-79705087D01*
X131163557Y-79566467D01*
X131146384Y-79509853D01*
X131112037Y-79396627D01*
X131094641Y-79220000D01*
X131112037Y-79043373D01*
X131163557Y-78873534D01*
X131163557Y-78873533D01*
X131247221Y-78717011D01*
X131247222Y-78717009D01*
X131276552Y-78681271D01*
X131359814Y-78579814D01*
X131461271Y-78496552D01*
X131497009Y-78467222D01*
X131528357Y-78450466D01*
X131653533Y-78383557D01*
X131710147Y-78366384D01*
X131823373Y-78332037D01*
X131889558Y-78325518D01*
X131955740Y-78319000D01*
X132044260Y-78319000D01*
X132110442Y-78325518D01*
X132110442Y-78325518D01*
G37*
G36*
X116870442Y-78325518D02*
X116936627Y-78332037D01*
X117049853Y-78366384D01*
X117106467Y-78383557D01*
X117231643Y-78450466D01*
X117262991Y-78467222D01*
X117298729Y-78496552D01*
X117400186Y-78579814D01*
X117483448Y-78681271D01*
X117512778Y-78717009D01*
X117512779Y-78717011D01*
X117596443Y-78873533D01*
X117596443Y-78873534D01*
X117647963Y-79043373D01*
X117665359Y-79220000D01*
X117647963Y-79396627D01*
X117613616Y-79509853D01*
X117596443Y-79566467D01*
X117522348Y-79705087D01*
X117512778Y-79722991D01*
X117483448Y-79758729D01*
X117400186Y-79860186D01*
X117298729Y-79943448D01*
X117262991Y-79972778D01*
X117262989Y-79972779D01*
X117106467Y-80056443D01*
X117049853Y-80073616D01*
X116936627Y-80107963D01*
X116870442Y-80114482D01*
X116804260Y-80121000D01*
X116715740Y-80121000D01*
X116649558Y-80114482D01*
X116583373Y-80107963D01*
X116470147Y-80073616D01*
X116413533Y-80056443D01*
X116257011Y-79972779D01*
X116257009Y-79972778D01*
X116221271Y-79943448D01*
X116119814Y-79860186D01*
X116036552Y-79758729D01*
X116007222Y-79722991D01*
X115997652Y-79705087D01*
X115923557Y-79566467D01*
X115906384Y-79509853D01*
X115872037Y-79396627D01*
X115854641Y-79220000D01*
X115872037Y-79043373D01*
X115923557Y-78873534D01*
X115923557Y-78873533D01*
X116007221Y-78717011D01*
X116007222Y-78717009D01*
X116036552Y-78681271D01*
X116119814Y-78579814D01*
X116221271Y-78496552D01*
X116257009Y-78467222D01*
X116288357Y-78450466D01*
X116413533Y-78383557D01*
X116470147Y-78366384D01*
X116583373Y-78332037D01*
X116649558Y-78325518D01*
X116715740Y-78319000D01*
X116804260Y-78319000D01*
X116870442Y-78325518D01*
X116870442Y-78325518D01*
G37*
G36*
X158588677Y-77903465D02*
X158626364Y-77914898D01*
X158661103Y-77933466D01*
X158691548Y-77958452D01*
X158716534Y-77988897D01*
X158735102Y-78023636D01*
X158746535Y-78061323D01*
X158751000Y-78106661D01*
X158751000Y-78943339D01*
X158746535Y-78988677D01*
X158735102Y-79026364D01*
X158716534Y-79061103D01*
X158691548Y-79091548D01*
X158661103Y-79116534D01*
X158626364Y-79135102D01*
X158588677Y-79146535D01*
X158543339Y-79151000D01*
X157456661Y-79151000D01*
X157411323Y-79146535D01*
X157373636Y-79135102D01*
X157338897Y-79116534D01*
X157308452Y-79091548D01*
X157283466Y-79061103D01*
X157264898Y-79026364D01*
X157253465Y-78988677D01*
X157249000Y-78943339D01*
X157249000Y-78106661D01*
X157253465Y-78061323D01*
X157264898Y-78023636D01*
X157283466Y-77988897D01*
X157308452Y-77958452D01*
X157338897Y-77933466D01*
X157373636Y-77914898D01*
X157411323Y-77903465D01*
X157456661Y-77899000D01*
X158543339Y-77899000D01*
X158588677Y-77903465D01*
X158588677Y-77903465D01*
G37*
G36*
X150317396Y-77085546D02*
X150490466Y-77157234D01*
X150646230Y-77261312D01*
X150778688Y-77393770D01*
X150882766Y-77549534D01*
X150954454Y-77722604D01*
X150991000Y-77906333D01*
X150991000Y-78093667D01*
X150954454Y-78277396D01*
X150882766Y-78450466D01*
X150778688Y-78606230D01*
X150646230Y-78738688D01*
X150490466Y-78842766D01*
X150317396Y-78914454D01*
X150133667Y-78951000D01*
X149946333Y-78951000D01*
X149762604Y-78914454D01*
X149589534Y-78842766D01*
X149433770Y-78738688D01*
X149301312Y-78606230D01*
X149197234Y-78450466D01*
X149125546Y-78277396D01*
X149089000Y-78093667D01*
X149089000Y-77906333D01*
X149125546Y-77722604D01*
X149197234Y-77549534D01*
X149301312Y-77393770D01*
X149433770Y-77261312D01*
X149589534Y-77157234D01*
X149762604Y-77085546D01*
X149946333Y-77049000D01*
X150133667Y-77049000D01*
X150317396Y-77085546D01*
X150317396Y-77085546D01*
G37*
G36*
X155817396Y-77085546D02*
X155990466Y-77157234D01*
X156146230Y-77261312D01*
X156278688Y-77393770D01*
X156382766Y-77549534D01*
X156454454Y-77722604D01*
X156491000Y-77906333D01*
X156491000Y-78093667D01*
X156454454Y-78277396D01*
X156382766Y-78450466D01*
X156278688Y-78606230D01*
X156146230Y-78738688D01*
X155990466Y-78842766D01*
X155817396Y-78914454D01*
X155633667Y-78951000D01*
X155446333Y-78951000D01*
X155262604Y-78914454D01*
X155089534Y-78842766D01*
X154933770Y-78738688D01*
X154801312Y-78606230D01*
X154697234Y-78450466D01*
X154625546Y-78277396D01*
X154589000Y-78093667D01*
X154589000Y-77906333D01*
X154625546Y-77722604D01*
X154697234Y-77549534D01*
X154801312Y-77393770D01*
X154933770Y-77261312D01*
X155089534Y-77157234D01*
X155262604Y-77085546D01*
X155446333Y-77049000D01*
X155633667Y-77049000D01*
X155817396Y-77085546D01*
X155817396Y-77085546D01*
G37*
G36*
X148451000Y-78951000D02*
X146549000Y-78951000D01*
X146549000Y-77049000D01*
X148451000Y-77049000D01*
X148451000Y-78951000D01*
X148451000Y-78951000D01*
G37*
G36*
X144817396Y-77085546D02*
X144990466Y-77157234D01*
X145146230Y-77261312D01*
X145278688Y-77393770D01*
X145382766Y-77549534D01*
X145454454Y-77722604D01*
X145491000Y-77906333D01*
X145491000Y-78093667D01*
X145454454Y-78277396D01*
X145382766Y-78450466D01*
X145278688Y-78606230D01*
X145146230Y-78738688D01*
X144990466Y-78842766D01*
X144817396Y-78914454D01*
X144633667Y-78951000D01*
X144446333Y-78951000D01*
X144262604Y-78914454D01*
X144089534Y-78842766D01*
X143933770Y-78738688D01*
X143801312Y-78606230D01*
X143697234Y-78450466D01*
X143625546Y-78277396D01*
X143589000Y-78093667D01*
X143589000Y-77906333D01*
X143625546Y-77722604D01*
X143697234Y-77549534D01*
X143801312Y-77393770D01*
X143933770Y-77261312D01*
X144089534Y-77157234D01*
X144262604Y-77085546D01*
X144446333Y-77049000D01*
X144633667Y-77049000D01*
X144817396Y-77085546D01*
X144817396Y-77085546D01*
G37*
G36*
X142951000Y-78951000D02*
X141049000Y-78951000D01*
X141049000Y-77049000D01*
X142951000Y-77049000D01*
X142951000Y-78951000D01*
X142951000Y-78951000D01*
G37*
G36*
X153951000Y-78951000D02*
X152049000Y-78951000D01*
X152049000Y-77049000D01*
X153951000Y-77049000D01*
X153951000Y-78951000D01*
X153951000Y-78951000D01*
G37*
G36*
X132110443Y-75785519D02*
X132176627Y-75792037D01*
X132289853Y-75826384D01*
X132346467Y-75843557D01*
X132467875Y-75908452D01*
X132502991Y-75927222D01*
X132538729Y-75956552D01*
X132640186Y-76039814D01*
X132723448Y-76141271D01*
X132752778Y-76177009D01*
X132752779Y-76177011D01*
X132836443Y-76333533D01*
X132836443Y-76333534D01*
X132887963Y-76503373D01*
X132905359Y-76680000D01*
X132887963Y-76856627D01*
X132864801Y-76932983D01*
X132836443Y-77026467D01*
X132766546Y-77157234D01*
X132752778Y-77182991D01*
X132723448Y-77218729D01*
X132640186Y-77320186D01*
X132538729Y-77403448D01*
X132502991Y-77432778D01*
X132502989Y-77432779D01*
X132346467Y-77516443D01*
X132289853Y-77533616D01*
X132176627Y-77567963D01*
X132110443Y-77574481D01*
X132044260Y-77581000D01*
X131955740Y-77581000D01*
X131889557Y-77574481D01*
X131823373Y-77567963D01*
X131710147Y-77533616D01*
X131653533Y-77516443D01*
X131497011Y-77432779D01*
X131497009Y-77432778D01*
X131461271Y-77403448D01*
X131359814Y-77320186D01*
X131276552Y-77218729D01*
X131247222Y-77182991D01*
X131233454Y-77157234D01*
X131163557Y-77026467D01*
X131135199Y-76932983D01*
X131112037Y-76856627D01*
X131094641Y-76680000D01*
X131112037Y-76503373D01*
X131163557Y-76333534D01*
X131163557Y-76333533D01*
X131247221Y-76177011D01*
X131247222Y-76177009D01*
X131276552Y-76141271D01*
X131359814Y-76039814D01*
X131461271Y-75956552D01*
X131497009Y-75927222D01*
X131532125Y-75908452D01*
X131653533Y-75843557D01*
X131710147Y-75826384D01*
X131823373Y-75792037D01*
X131889557Y-75785519D01*
X131955740Y-75779000D01*
X132044260Y-75779000D01*
X132110443Y-75785519D01*
X132110443Y-75785519D01*
G37*
G36*
X116870443Y-75785519D02*
X116936627Y-75792037D01*
X117049853Y-75826384D01*
X117106467Y-75843557D01*
X117227875Y-75908452D01*
X117262991Y-75927222D01*
X117298729Y-75956552D01*
X117400186Y-76039814D01*
X117483448Y-76141271D01*
X117512778Y-76177009D01*
X117512779Y-76177011D01*
X117596443Y-76333533D01*
X117596443Y-76333534D01*
X117647963Y-76503373D01*
X117665359Y-76680000D01*
X117647963Y-76856627D01*
X117624801Y-76932983D01*
X117596443Y-77026467D01*
X117526546Y-77157234D01*
X117512778Y-77182991D01*
X117483448Y-77218729D01*
X117400186Y-77320186D01*
X117298729Y-77403448D01*
X117262991Y-77432778D01*
X117262989Y-77432779D01*
X117106467Y-77516443D01*
X117049853Y-77533616D01*
X116936627Y-77567963D01*
X116870443Y-77574481D01*
X116804260Y-77581000D01*
X116715740Y-77581000D01*
X116649557Y-77574481D01*
X116583373Y-77567963D01*
X116470147Y-77533616D01*
X116413533Y-77516443D01*
X116257011Y-77432779D01*
X116257009Y-77432778D01*
X116221271Y-77403448D01*
X116119814Y-77320186D01*
X116036552Y-77218729D01*
X116007222Y-77182991D01*
X115993454Y-77157234D01*
X115923557Y-77026467D01*
X115895199Y-76932983D01*
X115872037Y-76856627D01*
X115854641Y-76680000D01*
X115872037Y-76503373D01*
X115923557Y-76333534D01*
X115923557Y-76333533D01*
X116007221Y-76177011D01*
X116007222Y-76177009D01*
X116036552Y-76141271D01*
X116119814Y-76039814D01*
X116221271Y-75956552D01*
X116257009Y-75927222D01*
X116292125Y-75908452D01*
X116413533Y-75843557D01*
X116470147Y-75826384D01*
X116583373Y-75792037D01*
X116649557Y-75785519D01*
X116715740Y-75779000D01*
X116804260Y-75779000D01*
X116870443Y-75785519D01*
X116870443Y-75785519D01*
G37*
G36*
X158588677Y-75853465D02*
X158626364Y-75864898D01*
X158661103Y-75883466D01*
X158691548Y-75908452D01*
X158716534Y-75938897D01*
X158735102Y-75973636D01*
X158746535Y-76011323D01*
X158751000Y-76056661D01*
X158751000Y-76893339D01*
X158746535Y-76938677D01*
X158735102Y-76976364D01*
X158716534Y-77011103D01*
X158691548Y-77041548D01*
X158661103Y-77066534D01*
X158626364Y-77085102D01*
X158588677Y-77096535D01*
X158543339Y-77101000D01*
X157456661Y-77101000D01*
X157411323Y-77096535D01*
X157373636Y-77085102D01*
X157338897Y-77066534D01*
X157308452Y-77041548D01*
X157283466Y-77011103D01*
X157264898Y-76976364D01*
X157253465Y-76938677D01*
X157249000Y-76893339D01*
X157249000Y-76056661D01*
X157253465Y-76011323D01*
X157264898Y-75973636D01*
X157283466Y-75938897D01*
X157308452Y-75908452D01*
X157338897Y-75883466D01*
X157373636Y-75864898D01*
X157411323Y-75853465D01*
X157456661Y-75849000D01*
X158543339Y-75849000D01*
X158588677Y-75853465D01*
X158588677Y-75853465D01*
G37*
G36*
X132110443Y-73245519D02*
X132176627Y-73252037D01*
X132289853Y-73286384D01*
X132346467Y-73303557D01*
X132485087Y-73377652D01*
X132502991Y-73387222D01*
X132538729Y-73416552D01*
X132640186Y-73499814D01*
X132723448Y-73601271D01*
X132752778Y-73637009D01*
X132752779Y-73637011D01*
X132836443Y-73793533D01*
X132836443Y-73793534D01*
X132887963Y-73963373D01*
X132905359Y-74140000D01*
X132887963Y-74316627D01*
X132853616Y-74429853D01*
X132836443Y-74486467D01*
X132762348Y-74625087D01*
X132752778Y-74642991D01*
X132723448Y-74678729D01*
X132640186Y-74780186D01*
X132538729Y-74863448D01*
X132502991Y-74892778D01*
X132502989Y-74892779D01*
X132346467Y-74976443D01*
X132289853Y-74993616D01*
X132176627Y-75027963D01*
X132110442Y-75034482D01*
X132044260Y-75041000D01*
X131955740Y-75041000D01*
X131889558Y-75034482D01*
X131823373Y-75027963D01*
X131710147Y-74993616D01*
X131653533Y-74976443D01*
X131497011Y-74892779D01*
X131497009Y-74892778D01*
X131461271Y-74863448D01*
X131359814Y-74780186D01*
X131276552Y-74678729D01*
X131247222Y-74642991D01*
X131237652Y-74625087D01*
X131163557Y-74486467D01*
X131146384Y-74429853D01*
X131112037Y-74316627D01*
X131094641Y-74140000D01*
X131112037Y-73963373D01*
X131163557Y-73793534D01*
X131163557Y-73793533D01*
X131247221Y-73637011D01*
X131247222Y-73637009D01*
X131276552Y-73601271D01*
X131359814Y-73499814D01*
X131461271Y-73416552D01*
X131497009Y-73387222D01*
X131514913Y-73377652D01*
X131653533Y-73303557D01*
X131710147Y-73286384D01*
X131823373Y-73252037D01*
X131889557Y-73245519D01*
X131955740Y-73239000D01*
X132044260Y-73239000D01*
X132110443Y-73245519D01*
X132110443Y-73245519D01*
G37*
G36*
X116870443Y-73245519D02*
X116936627Y-73252037D01*
X117049853Y-73286384D01*
X117106467Y-73303557D01*
X117245087Y-73377652D01*
X117262991Y-73387222D01*
X117298729Y-73416552D01*
X117400186Y-73499814D01*
X117483448Y-73601271D01*
X117512778Y-73637009D01*
X117512779Y-73637011D01*
X117596443Y-73793533D01*
X117596443Y-73793534D01*
X117647963Y-73963373D01*
X117665359Y-74140000D01*
X117647963Y-74316627D01*
X117613616Y-74429853D01*
X117596443Y-74486467D01*
X117522348Y-74625087D01*
X117512778Y-74642991D01*
X117483448Y-74678729D01*
X117400186Y-74780186D01*
X117298729Y-74863448D01*
X117262991Y-74892778D01*
X117262989Y-74892779D01*
X117106467Y-74976443D01*
X117049853Y-74993616D01*
X116936627Y-75027963D01*
X116870442Y-75034482D01*
X116804260Y-75041000D01*
X116715740Y-75041000D01*
X116649558Y-75034482D01*
X116583373Y-75027963D01*
X116470147Y-74993616D01*
X116413533Y-74976443D01*
X116257011Y-74892779D01*
X116257009Y-74892778D01*
X116221271Y-74863448D01*
X116119814Y-74780186D01*
X116036552Y-74678729D01*
X116007222Y-74642991D01*
X115997652Y-74625087D01*
X115923557Y-74486467D01*
X115906384Y-74429853D01*
X115872037Y-74316627D01*
X115854641Y-74140000D01*
X115872037Y-73963373D01*
X115923557Y-73793534D01*
X115923557Y-73793533D01*
X116007221Y-73637011D01*
X116007222Y-73637009D01*
X116036552Y-73601271D01*
X116119814Y-73499814D01*
X116221271Y-73416552D01*
X116257009Y-73387222D01*
X116274913Y-73377652D01*
X116413533Y-73303557D01*
X116470147Y-73286384D01*
X116583373Y-73252037D01*
X116649557Y-73245519D01*
X116715740Y-73239000D01*
X116804260Y-73239000D01*
X116870443Y-73245519D01*
X116870443Y-73245519D01*
G37*
G36*
X150317396Y-71085546D02*
X150490466Y-71157234D01*
X150646230Y-71261312D01*
X150778688Y-71393770D01*
X150882766Y-71549534D01*
X150954454Y-71722604D01*
X150991000Y-71906333D01*
X150991000Y-72093667D01*
X150954454Y-72277396D01*
X150882766Y-72450466D01*
X150778688Y-72606230D01*
X150646230Y-72738688D01*
X150490466Y-72842766D01*
X150317396Y-72914454D01*
X150133667Y-72951000D01*
X149946333Y-72951000D01*
X149762604Y-72914454D01*
X149589534Y-72842766D01*
X149433770Y-72738688D01*
X149301312Y-72606230D01*
X149197234Y-72450466D01*
X149125546Y-72277396D01*
X149089000Y-72093667D01*
X149089000Y-71906333D01*
X149125546Y-71722604D01*
X149197234Y-71549534D01*
X149301312Y-71393770D01*
X149433770Y-71261312D01*
X149589534Y-71157234D01*
X149762604Y-71085546D01*
X149946333Y-71049000D01*
X150133667Y-71049000D01*
X150317396Y-71085546D01*
X150317396Y-71085546D01*
G37*
G36*
X148451000Y-72951000D02*
X146549000Y-72951000D01*
X146549000Y-71049000D01*
X148451000Y-71049000D01*
X148451000Y-72951000D01*
X148451000Y-72951000D01*
G37*
G36*
X152938677Y-71253465D02*
X152976364Y-71264898D01*
X153011103Y-71283466D01*
X153041548Y-71308452D01*
X153066534Y-71338897D01*
X153085102Y-71373636D01*
X153096535Y-71411323D01*
X153101000Y-71456661D01*
X153101000Y-72543339D01*
X153096535Y-72588677D01*
X153085102Y-72626364D01*
X153066534Y-72661103D01*
X153041548Y-72691548D01*
X153011103Y-72716534D01*
X152976364Y-72735102D01*
X152938677Y-72746535D01*
X152893339Y-72751000D01*
X152056661Y-72751000D01*
X152011323Y-72746535D01*
X151973636Y-72735102D01*
X151938897Y-72716534D01*
X151908452Y-72691548D01*
X151883466Y-72661103D01*
X151864898Y-72626364D01*
X151853465Y-72588677D01*
X151849000Y-72543339D01*
X151849000Y-71456661D01*
X151853465Y-71411323D01*
X151864898Y-71373636D01*
X151883466Y-71338897D01*
X151908452Y-71308452D01*
X151938897Y-71283466D01*
X151973636Y-71264898D01*
X152011323Y-71253465D01*
X152056661Y-71249000D01*
X152893339Y-71249000D01*
X152938677Y-71253465D01*
X152938677Y-71253465D01*
G37*
G36*
X154988677Y-71253465D02*
X155026364Y-71264898D01*
X155061103Y-71283466D01*
X155091548Y-71308452D01*
X155116534Y-71338897D01*
X155135102Y-71373636D01*
X155146535Y-71411323D01*
X155151000Y-71456661D01*
X155151000Y-72543339D01*
X155146535Y-72588677D01*
X155135102Y-72626364D01*
X155116534Y-72661103D01*
X155091548Y-72691548D01*
X155061103Y-72716534D01*
X155026364Y-72735102D01*
X154988677Y-72746535D01*
X154943339Y-72751000D01*
X154106661Y-72751000D01*
X154061323Y-72746535D01*
X154023636Y-72735102D01*
X153988897Y-72716534D01*
X153958452Y-72691548D01*
X153933466Y-72661103D01*
X153914898Y-72626364D01*
X153903465Y-72588677D01*
X153899000Y-72543339D01*
X153899000Y-71456661D01*
X153903465Y-71411323D01*
X153914898Y-71373636D01*
X153933466Y-71338897D01*
X153958452Y-71308452D01*
X153988897Y-71283466D01*
X154023636Y-71264898D01*
X154061323Y-71253465D01*
X154106661Y-71249000D01*
X154943339Y-71249000D01*
X154988677Y-71253465D01*
X154988677Y-71253465D01*
G37*
G36*
X132110443Y-70705519D02*
X132176627Y-70712037D01*
X132289853Y-70746384D01*
X132346467Y-70763557D01*
X132485087Y-70837652D01*
X132502991Y-70847222D01*
X132538729Y-70876552D01*
X132640186Y-70959814D01*
X132713378Y-71049000D01*
X132752778Y-71097009D01*
X132752779Y-71097011D01*
X132836443Y-71253533D01*
X132845523Y-71283466D01*
X132887963Y-71423373D01*
X132905359Y-71600000D01*
X132887963Y-71776627D01*
X132853616Y-71889853D01*
X132836443Y-71946467D01*
X132762348Y-72085087D01*
X132752778Y-72102991D01*
X132723448Y-72138729D01*
X132640186Y-72240186D01*
X132538729Y-72323448D01*
X132502991Y-72352778D01*
X132502989Y-72352779D01*
X132346467Y-72436443D01*
X132300238Y-72450466D01*
X132176627Y-72487963D01*
X132110443Y-72494481D01*
X132044260Y-72501000D01*
X131955740Y-72501000D01*
X131889557Y-72494481D01*
X131823373Y-72487963D01*
X131699762Y-72450466D01*
X131653533Y-72436443D01*
X131497011Y-72352779D01*
X131497009Y-72352778D01*
X131461271Y-72323448D01*
X131359814Y-72240186D01*
X131276552Y-72138729D01*
X131247222Y-72102991D01*
X131237652Y-72085087D01*
X131163557Y-71946467D01*
X131146384Y-71889853D01*
X131112037Y-71776627D01*
X131094641Y-71600000D01*
X131112037Y-71423373D01*
X131154477Y-71283466D01*
X131163557Y-71253533D01*
X131247221Y-71097011D01*
X131247222Y-71097009D01*
X131286622Y-71049000D01*
X131359814Y-70959814D01*
X131461271Y-70876552D01*
X131497009Y-70847222D01*
X131514913Y-70837652D01*
X131653533Y-70763557D01*
X131710147Y-70746384D01*
X131823373Y-70712037D01*
X131889557Y-70705519D01*
X131955740Y-70699000D01*
X132044260Y-70699000D01*
X132110443Y-70705519D01*
X132110443Y-70705519D01*
G37*
G36*
X116870443Y-70705519D02*
X116936627Y-70712037D01*
X117049853Y-70746384D01*
X117106467Y-70763557D01*
X117245087Y-70837652D01*
X117262991Y-70847222D01*
X117298729Y-70876552D01*
X117400186Y-70959814D01*
X117473378Y-71049000D01*
X117512778Y-71097009D01*
X117512779Y-71097011D01*
X117596443Y-71253533D01*
X117605523Y-71283466D01*
X117647963Y-71423373D01*
X117665359Y-71600000D01*
X117647963Y-71776627D01*
X117613616Y-71889853D01*
X117596443Y-71946467D01*
X117522348Y-72085087D01*
X117512778Y-72102991D01*
X117483448Y-72138729D01*
X117400186Y-72240186D01*
X117298729Y-72323448D01*
X117262991Y-72352778D01*
X117262989Y-72352779D01*
X117106467Y-72436443D01*
X117060238Y-72450466D01*
X116936627Y-72487963D01*
X116870443Y-72494481D01*
X116804260Y-72501000D01*
X116715740Y-72501000D01*
X116649557Y-72494481D01*
X116583373Y-72487963D01*
X116459762Y-72450466D01*
X116413533Y-72436443D01*
X116257011Y-72352779D01*
X116257009Y-72352778D01*
X116221271Y-72323448D01*
X116119814Y-72240186D01*
X116036552Y-72138729D01*
X116007222Y-72102991D01*
X115997652Y-72085087D01*
X115923557Y-71946467D01*
X115906384Y-71889853D01*
X115872037Y-71776627D01*
X115854641Y-71600000D01*
X115872037Y-71423373D01*
X115914477Y-71283466D01*
X115923557Y-71253533D01*
X116007221Y-71097011D01*
X116007222Y-71097009D01*
X116046622Y-71049000D01*
X116119814Y-70959814D01*
X116221271Y-70876552D01*
X116257009Y-70847222D01*
X116274913Y-70837652D01*
X116413533Y-70763557D01*
X116470147Y-70746384D01*
X116583373Y-70712037D01*
X116649557Y-70705519D01*
X116715740Y-70699000D01*
X116804260Y-70699000D01*
X116870443Y-70705519D01*
X116870443Y-70705519D01*
G37*
G36*
X132110442Y-68165518D02*
X132176627Y-68172037D01*
X132289853Y-68206384D01*
X132346467Y-68223557D01*
X132485087Y-68297652D01*
X132502991Y-68307222D01*
X132538729Y-68336552D01*
X132640186Y-68419814D01*
X132723448Y-68521271D01*
X132752778Y-68557009D01*
X132752779Y-68557011D01*
X132836443Y-68713533D01*
X132836443Y-68713534D01*
X132887963Y-68883373D01*
X132905359Y-69060000D01*
X132887963Y-69236627D01*
X132853616Y-69349853D01*
X132836443Y-69406467D01*
X132762348Y-69545087D01*
X132752778Y-69562991D01*
X132723448Y-69598729D01*
X132640186Y-69700186D01*
X132538729Y-69783448D01*
X132502991Y-69812778D01*
X132502989Y-69812779D01*
X132346467Y-69896443D01*
X132289853Y-69913616D01*
X132176627Y-69947963D01*
X132110442Y-69954482D01*
X132044260Y-69961000D01*
X131955740Y-69961000D01*
X131889558Y-69954482D01*
X131823373Y-69947963D01*
X131710147Y-69913616D01*
X131653533Y-69896443D01*
X131497011Y-69812779D01*
X131497009Y-69812778D01*
X131461271Y-69783448D01*
X131359814Y-69700186D01*
X131276552Y-69598729D01*
X131247222Y-69562991D01*
X131237652Y-69545087D01*
X131163557Y-69406467D01*
X131146384Y-69349853D01*
X131112037Y-69236627D01*
X131094641Y-69060000D01*
X131112037Y-68883373D01*
X131163557Y-68713534D01*
X131163557Y-68713533D01*
X131247221Y-68557011D01*
X131247222Y-68557009D01*
X131276552Y-68521271D01*
X131359814Y-68419814D01*
X131461271Y-68336552D01*
X131497009Y-68307222D01*
X131514913Y-68297652D01*
X131653533Y-68223557D01*
X131710147Y-68206384D01*
X131823373Y-68172037D01*
X131889558Y-68165518D01*
X131955740Y-68159000D01*
X132044260Y-68159000D01*
X132110442Y-68165518D01*
X132110442Y-68165518D01*
G37*
G36*
X116870442Y-68165518D02*
X116936627Y-68172037D01*
X117049853Y-68206384D01*
X117106467Y-68223557D01*
X117245087Y-68297652D01*
X117262991Y-68307222D01*
X117298729Y-68336552D01*
X117400186Y-68419814D01*
X117483448Y-68521271D01*
X117512778Y-68557009D01*
X117512779Y-68557011D01*
X117596443Y-68713533D01*
X117596443Y-68713534D01*
X117647963Y-68883373D01*
X117665359Y-69060000D01*
X117647963Y-69236627D01*
X117613616Y-69349853D01*
X117596443Y-69406467D01*
X117522348Y-69545087D01*
X117512778Y-69562991D01*
X117483448Y-69598729D01*
X117400186Y-69700186D01*
X117298729Y-69783448D01*
X117262991Y-69812778D01*
X117262989Y-69812779D01*
X117106467Y-69896443D01*
X117049853Y-69913616D01*
X116936627Y-69947963D01*
X116870442Y-69954482D01*
X116804260Y-69961000D01*
X116715740Y-69961000D01*
X116649558Y-69954482D01*
X116583373Y-69947963D01*
X116470147Y-69913616D01*
X116413533Y-69896443D01*
X116257011Y-69812779D01*
X116257009Y-69812778D01*
X116221271Y-69783448D01*
X116119814Y-69700186D01*
X116036552Y-69598729D01*
X116007222Y-69562991D01*
X115997652Y-69545087D01*
X115923557Y-69406467D01*
X115906384Y-69349853D01*
X115872037Y-69236627D01*
X115854641Y-69060000D01*
X115872037Y-68883373D01*
X115923557Y-68713534D01*
X115923557Y-68713533D01*
X116007221Y-68557011D01*
X116007222Y-68557009D01*
X116036552Y-68521271D01*
X116119814Y-68419814D01*
X116221271Y-68336552D01*
X116257009Y-68307222D01*
X116274913Y-68297652D01*
X116413533Y-68223557D01*
X116470147Y-68206384D01*
X116583373Y-68172037D01*
X116649558Y-68165518D01*
X116715740Y-68159000D01*
X116804260Y-68159000D01*
X116870442Y-68165518D01*
X116870442Y-68165518D01*
G37*
G36*
X132110443Y-65625519D02*
X132176627Y-65632037D01*
X132289853Y-65666384D01*
X132346467Y-65683557D01*
X132485087Y-65757652D01*
X132502991Y-65767222D01*
X132538729Y-65796552D01*
X132640186Y-65879814D01*
X132723448Y-65981271D01*
X132752778Y-66017009D01*
X132752779Y-66017011D01*
X132836443Y-66173533D01*
X132836443Y-66173534D01*
X132887963Y-66343373D01*
X132905359Y-66520000D01*
X132887963Y-66696627D01*
X132875204Y-66738688D01*
X132836443Y-66866467D01*
X132810793Y-66914454D01*
X132752778Y-67022991D01*
X132723448Y-67058729D01*
X132640186Y-67160186D01*
X132538729Y-67243448D01*
X132502991Y-67272778D01*
X132502989Y-67272779D01*
X132346467Y-67356443D01*
X132289853Y-67373616D01*
X132176627Y-67407963D01*
X132110443Y-67414481D01*
X132044260Y-67421000D01*
X131955740Y-67421000D01*
X131889557Y-67414481D01*
X131823373Y-67407963D01*
X131710147Y-67373616D01*
X131653533Y-67356443D01*
X131497011Y-67272779D01*
X131497009Y-67272778D01*
X131461271Y-67243448D01*
X131359814Y-67160186D01*
X131276552Y-67058729D01*
X131247222Y-67022991D01*
X131189207Y-66914454D01*
X131163557Y-66866467D01*
X131124796Y-66738688D01*
X131112037Y-66696627D01*
X131094641Y-66520000D01*
X131112037Y-66343373D01*
X131163557Y-66173534D01*
X131163557Y-66173533D01*
X131247221Y-66017011D01*
X131247222Y-66017009D01*
X131276552Y-65981271D01*
X131359814Y-65879814D01*
X131461271Y-65796552D01*
X131497009Y-65767222D01*
X131514913Y-65757652D01*
X131653533Y-65683557D01*
X131710147Y-65666384D01*
X131823373Y-65632037D01*
X131889557Y-65625519D01*
X131955740Y-65619000D01*
X132044260Y-65619000D01*
X132110443Y-65625519D01*
X132110443Y-65625519D01*
G37*
G36*
X116870443Y-65625519D02*
X116936627Y-65632037D01*
X117049853Y-65666384D01*
X117106467Y-65683557D01*
X117245087Y-65757652D01*
X117262991Y-65767222D01*
X117298729Y-65796552D01*
X117400186Y-65879814D01*
X117483448Y-65981271D01*
X117512778Y-66017009D01*
X117512779Y-66017011D01*
X117596443Y-66173533D01*
X117596443Y-66173534D01*
X117647963Y-66343373D01*
X117665359Y-66520000D01*
X117647963Y-66696627D01*
X117635204Y-66738688D01*
X117596443Y-66866467D01*
X117570793Y-66914454D01*
X117512778Y-67022991D01*
X117483448Y-67058729D01*
X117400186Y-67160186D01*
X117298729Y-67243448D01*
X117262991Y-67272778D01*
X117262989Y-67272779D01*
X117106467Y-67356443D01*
X117049853Y-67373616D01*
X116936627Y-67407963D01*
X116870443Y-67414481D01*
X116804260Y-67421000D01*
X116715740Y-67421000D01*
X116649557Y-67414481D01*
X116583373Y-67407963D01*
X116470147Y-67373616D01*
X116413533Y-67356443D01*
X116257011Y-67272779D01*
X116257009Y-67272778D01*
X116221271Y-67243448D01*
X116119814Y-67160186D01*
X116036552Y-67058729D01*
X116007222Y-67022991D01*
X115949207Y-66914454D01*
X115923557Y-66866467D01*
X115884796Y-66738688D01*
X115872037Y-66696627D01*
X115854641Y-66520000D01*
X115872037Y-66343373D01*
X115923557Y-66173534D01*
X115923557Y-66173533D01*
X116007221Y-66017011D01*
X116007222Y-66017009D01*
X116036552Y-65981271D01*
X116119814Y-65879814D01*
X116221271Y-65796552D01*
X116257009Y-65767222D01*
X116274913Y-65757652D01*
X116413533Y-65683557D01*
X116470147Y-65666384D01*
X116583373Y-65632037D01*
X116649557Y-65625519D01*
X116715740Y-65619000D01*
X116804260Y-65619000D01*
X116870443Y-65625519D01*
X116870443Y-65625519D01*
G37*
G36*
X144817396Y-65085546D02*
X144990466Y-65157234D01*
X145146230Y-65261312D01*
X145278688Y-65393770D01*
X145382766Y-65549534D01*
X145454454Y-65722604D01*
X145491000Y-65906333D01*
X145491000Y-66093667D01*
X145454454Y-66277396D01*
X145382766Y-66450466D01*
X145278688Y-66606230D01*
X145146230Y-66738688D01*
X144990466Y-66842766D01*
X144817396Y-66914454D01*
X144633667Y-66951000D01*
X144446333Y-66951000D01*
X144262604Y-66914454D01*
X144089534Y-66842766D01*
X143933770Y-66738688D01*
X143801312Y-66606230D01*
X143697234Y-66450466D01*
X143625546Y-66277396D01*
X143589000Y-66093667D01*
X143589000Y-65906333D01*
X143625546Y-65722604D01*
X143697234Y-65549534D01*
X143801312Y-65393770D01*
X143933770Y-65261312D01*
X144089534Y-65157234D01*
X144262604Y-65085546D01*
X144446333Y-65049000D01*
X144633667Y-65049000D01*
X144817396Y-65085546D01*
X144817396Y-65085546D01*
G37*
G36*
X153951000Y-66951000D02*
X152049000Y-66951000D01*
X152049000Y-65049000D01*
X153951000Y-65049000D01*
X153951000Y-66951000D01*
X153951000Y-66951000D01*
G37*
G36*
X155817396Y-65085546D02*
X155990466Y-65157234D01*
X156146230Y-65261312D01*
X156278688Y-65393770D01*
X156382766Y-65549534D01*
X156454454Y-65722604D01*
X156491000Y-65906333D01*
X156491000Y-66093667D01*
X156454454Y-66277396D01*
X156382766Y-66450466D01*
X156278688Y-66606230D01*
X156146230Y-66738688D01*
X155990466Y-66842766D01*
X155817396Y-66914454D01*
X155633667Y-66951000D01*
X155446333Y-66951000D01*
X155262604Y-66914454D01*
X155089534Y-66842766D01*
X154933770Y-66738688D01*
X154801312Y-66606230D01*
X154697234Y-66450466D01*
X154625546Y-66277396D01*
X154589000Y-66093667D01*
X154589000Y-65906333D01*
X154625546Y-65722604D01*
X154697234Y-65549534D01*
X154801312Y-65393770D01*
X154933770Y-65261312D01*
X155089534Y-65157234D01*
X155262604Y-65085546D01*
X155446333Y-65049000D01*
X155633667Y-65049000D01*
X155817396Y-65085546D01*
X155817396Y-65085546D01*
G37*
G36*
X150317396Y-65085546D02*
X150490466Y-65157234D01*
X150646230Y-65261312D01*
X150778688Y-65393770D01*
X150882766Y-65549534D01*
X150954454Y-65722604D01*
X150991000Y-65906333D01*
X150991000Y-66093667D01*
X150954454Y-66277396D01*
X150882766Y-66450466D01*
X150778688Y-66606230D01*
X150646230Y-66738688D01*
X150490466Y-66842766D01*
X150317396Y-66914454D01*
X150133667Y-66951000D01*
X149946333Y-66951000D01*
X149762604Y-66914454D01*
X149589534Y-66842766D01*
X149433770Y-66738688D01*
X149301312Y-66606230D01*
X149197234Y-66450466D01*
X149125546Y-66277396D01*
X149089000Y-66093667D01*
X149089000Y-65906333D01*
X149125546Y-65722604D01*
X149197234Y-65549534D01*
X149301312Y-65393770D01*
X149433770Y-65261312D01*
X149589534Y-65157234D01*
X149762604Y-65085546D01*
X149946333Y-65049000D01*
X150133667Y-65049000D01*
X150317396Y-65085546D01*
X150317396Y-65085546D01*
G37*
G36*
X142951000Y-66951000D02*
X141049000Y-66951000D01*
X141049000Y-65049000D01*
X142951000Y-65049000D01*
X142951000Y-66951000D01*
X142951000Y-66951000D01*
G37*
G36*
X148451000Y-66951000D02*
X146549000Y-66951000D01*
X146549000Y-65049000D01*
X148451000Y-65049000D01*
X148451000Y-66951000D01*
X148451000Y-66951000D01*
G37*
G36*
X158588677Y-65403465D02*
X158626364Y-65414898D01*
X158661103Y-65433466D01*
X158691548Y-65458452D01*
X158716534Y-65488897D01*
X158735102Y-65523636D01*
X158746535Y-65561323D01*
X158751000Y-65606661D01*
X158751000Y-66443339D01*
X158746535Y-66488677D01*
X158735102Y-66526364D01*
X158716534Y-66561103D01*
X158691548Y-66591548D01*
X158661103Y-66616534D01*
X158626364Y-66635102D01*
X158588677Y-66646535D01*
X158543339Y-66651000D01*
X157456661Y-66651000D01*
X157411323Y-66646535D01*
X157373636Y-66635102D01*
X157338897Y-66616534D01*
X157308452Y-66591548D01*
X157283466Y-66561103D01*
X157264898Y-66526364D01*
X157253465Y-66488677D01*
X157249000Y-66443339D01*
X157249000Y-65606661D01*
X157253465Y-65561323D01*
X157264898Y-65523636D01*
X157283466Y-65488897D01*
X157308452Y-65458452D01*
X157338897Y-65433466D01*
X157373636Y-65414898D01*
X157411323Y-65403465D01*
X157456661Y-65399000D01*
X158543339Y-65399000D01*
X158588677Y-65403465D01*
X158588677Y-65403465D01*
G37*
G36*
X116870442Y-63085518D02*
X116936627Y-63092037D01*
X117049788Y-63126364D01*
X117106467Y-63143557D01*
X117221662Y-63205131D01*
X117262991Y-63227222D01*
X117286524Y-63246535D01*
X117400186Y-63339814D01*
X117481500Y-63438897D01*
X117512778Y-63477009D01*
X117512779Y-63477011D01*
X117596443Y-63633533D01*
X117596443Y-63633534D01*
X117647963Y-63803373D01*
X117665359Y-63980000D01*
X117647963Y-64156627D01*
X117613616Y-64269853D01*
X117596443Y-64326467D01*
X117539508Y-64432983D01*
X117512778Y-64482991D01*
X117489707Y-64511103D01*
X117400186Y-64620186D01*
X117298729Y-64703448D01*
X117262991Y-64732778D01*
X117262989Y-64732779D01*
X117106467Y-64816443D01*
X117049853Y-64833616D01*
X116936627Y-64867963D01*
X116870443Y-64874481D01*
X116804260Y-64881000D01*
X116715740Y-64881000D01*
X116649557Y-64874481D01*
X116583373Y-64867963D01*
X116470147Y-64833616D01*
X116413533Y-64816443D01*
X116257011Y-64732779D01*
X116257009Y-64732778D01*
X116221271Y-64703448D01*
X116119814Y-64620186D01*
X116030293Y-64511103D01*
X116007222Y-64482991D01*
X115980492Y-64432983D01*
X115923557Y-64326467D01*
X115906384Y-64269853D01*
X115872037Y-64156627D01*
X115854641Y-63980000D01*
X115872037Y-63803373D01*
X115923557Y-63633534D01*
X115923557Y-63633533D01*
X116007221Y-63477011D01*
X116007222Y-63477009D01*
X116038500Y-63438897D01*
X116119814Y-63339814D01*
X116233476Y-63246535D01*
X116257009Y-63227222D01*
X116298338Y-63205131D01*
X116413533Y-63143557D01*
X116470212Y-63126364D01*
X116583373Y-63092037D01*
X116649558Y-63085518D01*
X116715740Y-63079000D01*
X116804260Y-63079000D01*
X116870442Y-63085518D01*
X116870442Y-63085518D01*
G37*
G36*
X132110442Y-63085518D02*
X132176627Y-63092037D01*
X132289788Y-63126364D01*
X132346467Y-63143557D01*
X132461662Y-63205131D01*
X132502991Y-63227222D01*
X132526524Y-63246535D01*
X132640186Y-63339814D01*
X132721500Y-63438897D01*
X132752778Y-63477009D01*
X132752779Y-63477011D01*
X132836443Y-63633533D01*
X132836443Y-63633534D01*
X132887963Y-63803373D01*
X132905359Y-63980000D01*
X132887963Y-64156627D01*
X132853616Y-64269853D01*
X132836443Y-64326467D01*
X132779508Y-64432983D01*
X132752778Y-64482991D01*
X132729707Y-64511103D01*
X132640186Y-64620186D01*
X132538729Y-64703448D01*
X132502991Y-64732778D01*
X132502989Y-64732779D01*
X132346467Y-64816443D01*
X132289853Y-64833616D01*
X132176627Y-64867963D01*
X132110443Y-64874481D01*
X132044260Y-64881000D01*
X131955740Y-64881000D01*
X131889557Y-64874481D01*
X131823373Y-64867963D01*
X131710147Y-64833616D01*
X131653533Y-64816443D01*
X131497011Y-64732779D01*
X131497009Y-64732778D01*
X131461271Y-64703448D01*
X131359814Y-64620186D01*
X131270293Y-64511103D01*
X131247222Y-64482991D01*
X131220492Y-64432983D01*
X131163557Y-64326467D01*
X131146384Y-64269853D01*
X131112037Y-64156627D01*
X131094641Y-63980000D01*
X131112037Y-63803373D01*
X131163557Y-63633534D01*
X131163557Y-63633533D01*
X131247221Y-63477011D01*
X131247222Y-63477009D01*
X131278500Y-63438897D01*
X131359814Y-63339814D01*
X131473476Y-63246535D01*
X131497009Y-63227222D01*
X131538338Y-63205131D01*
X131653533Y-63143557D01*
X131710212Y-63126364D01*
X131823373Y-63092037D01*
X131889558Y-63085518D01*
X131955740Y-63079000D01*
X132044260Y-63079000D01*
X132110442Y-63085518D01*
X132110442Y-63085518D01*
G37*
G36*
X158588677Y-63353465D02*
X158626364Y-63364898D01*
X158661103Y-63383466D01*
X158691548Y-63408452D01*
X158716534Y-63438897D01*
X158735102Y-63473636D01*
X158746535Y-63511323D01*
X158751000Y-63556661D01*
X158751000Y-64393339D01*
X158746535Y-64438677D01*
X158735102Y-64476364D01*
X158716534Y-64511103D01*
X158691548Y-64541548D01*
X158661103Y-64566534D01*
X158626364Y-64585102D01*
X158588677Y-64596535D01*
X158543339Y-64601000D01*
X157456661Y-64601000D01*
X157411323Y-64596535D01*
X157373636Y-64585102D01*
X157338897Y-64566534D01*
X157308452Y-64541548D01*
X157283466Y-64511103D01*
X157264898Y-64476364D01*
X157253465Y-64438677D01*
X157249000Y-64393339D01*
X157249000Y-63556661D01*
X157253465Y-63511323D01*
X157264898Y-63473636D01*
X157283466Y-63438897D01*
X157308452Y-63408452D01*
X157338897Y-63383466D01*
X157373636Y-63364898D01*
X157411323Y-63353465D01*
X157456661Y-63349000D01*
X158543339Y-63349000D01*
X158588677Y-63353465D01*
X158588677Y-63353465D01*
G37*
G36*
X150488677Y-61753465D02*
X150526364Y-61764898D01*
X150561103Y-61783466D01*
X150591548Y-61808452D01*
X150616534Y-61838897D01*
X150635102Y-61873636D01*
X150646535Y-61911323D01*
X150651000Y-61956661D01*
X150651000Y-63043339D01*
X150646535Y-63088677D01*
X150635102Y-63126364D01*
X150616534Y-63161103D01*
X150591548Y-63191548D01*
X150561103Y-63216534D01*
X150526364Y-63235102D01*
X150488677Y-63246535D01*
X150443339Y-63251000D01*
X149606661Y-63251000D01*
X149561323Y-63246535D01*
X149523636Y-63235102D01*
X149488897Y-63216534D01*
X149458452Y-63191548D01*
X149433466Y-63161103D01*
X149414898Y-63126364D01*
X149403465Y-63088677D01*
X149399000Y-63043339D01*
X149399000Y-61956661D01*
X149403465Y-61911323D01*
X149414898Y-61873636D01*
X149433466Y-61838897D01*
X149458452Y-61808452D01*
X149488897Y-61783466D01*
X149523636Y-61764898D01*
X149561323Y-61753465D01*
X149606661Y-61749000D01*
X150443339Y-61749000D01*
X150488677Y-61753465D01*
X150488677Y-61753465D01*
G37*
G36*
X142938677Y-61753465D02*
X142976364Y-61764898D01*
X143011103Y-61783466D01*
X143041548Y-61808452D01*
X143066534Y-61838897D01*
X143085102Y-61873636D01*
X143096535Y-61911323D01*
X143101000Y-61956661D01*
X143101000Y-63043339D01*
X143096535Y-63088677D01*
X143085102Y-63126364D01*
X143066534Y-63161103D01*
X143041548Y-63191548D01*
X143011103Y-63216534D01*
X142976364Y-63235102D01*
X142938677Y-63246535D01*
X142893339Y-63251000D01*
X142056661Y-63251000D01*
X142011323Y-63246535D01*
X141973636Y-63235102D01*
X141938897Y-63216534D01*
X141908452Y-63191548D01*
X141883466Y-63161103D01*
X141864898Y-63126364D01*
X141853465Y-63088677D01*
X141849000Y-63043339D01*
X141849000Y-61956661D01*
X141853465Y-61911323D01*
X141864898Y-61873636D01*
X141883466Y-61838897D01*
X141908452Y-61808452D01*
X141938897Y-61783466D01*
X141973636Y-61764898D01*
X142011323Y-61753465D01*
X142056661Y-61749000D01*
X142893339Y-61749000D01*
X142938677Y-61753465D01*
X142938677Y-61753465D01*
G37*
G36*
X144988677Y-61753465D02*
X145026364Y-61764898D01*
X145061103Y-61783466D01*
X145091548Y-61808452D01*
X145116534Y-61838897D01*
X145135102Y-61873636D01*
X145146535Y-61911323D01*
X145151000Y-61956661D01*
X145151000Y-63043339D01*
X145146535Y-63088677D01*
X145135102Y-63126364D01*
X145116534Y-63161103D01*
X145091548Y-63191548D01*
X145061103Y-63216534D01*
X145026364Y-63235102D01*
X144988677Y-63246535D01*
X144943339Y-63251000D01*
X144106661Y-63251000D01*
X144061323Y-63246535D01*
X144023636Y-63235102D01*
X143988897Y-63216534D01*
X143958452Y-63191548D01*
X143933466Y-63161103D01*
X143914898Y-63126364D01*
X143903465Y-63088677D01*
X143899000Y-63043339D01*
X143899000Y-61956661D01*
X143903465Y-61911323D01*
X143914898Y-61873636D01*
X143933466Y-61838897D01*
X143958452Y-61808452D01*
X143988897Y-61783466D01*
X144023636Y-61764898D01*
X144061323Y-61753465D01*
X144106661Y-61749000D01*
X144943339Y-61749000D01*
X144988677Y-61753465D01*
X144988677Y-61753465D01*
G37*
G36*
X148438677Y-61753465D02*
X148476364Y-61764898D01*
X148511103Y-61783466D01*
X148541548Y-61808452D01*
X148566534Y-61838897D01*
X148585102Y-61873636D01*
X148596535Y-61911323D01*
X148601000Y-61956661D01*
X148601000Y-63043339D01*
X148596535Y-63088677D01*
X148585102Y-63126364D01*
X148566534Y-63161103D01*
X148541548Y-63191548D01*
X148511103Y-63216534D01*
X148476364Y-63235102D01*
X148438677Y-63246535D01*
X148393339Y-63251000D01*
X147556661Y-63251000D01*
X147511323Y-63246535D01*
X147473636Y-63235102D01*
X147438897Y-63216534D01*
X147408452Y-63191548D01*
X147383466Y-63161103D01*
X147364898Y-63126364D01*
X147353465Y-63088677D01*
X147349000Y-63043339D01*
X147349000Y-61956661D01*
X147353465Y-61911323D01*
X147364898Y-61873636D01*
X147383466Y-61838897D01*
X147408452Y-61808452D01*
X147438897Y-61783466D01*
X147473636Y-61764898D01*
X147511323Y-61753465D01*
X147556661Y-61749000D01*
X148393339Y-61749000D01*
X148438677Y-61753465D01*
X148438677Y-61753465D01*
G37*
G36*
X117661000Y-62341000D02*
X115859000Y-62341000D01*
X115859000Y-60539000D01*
X117661000Y-60539000D01*
X117661000Y-62341000D01*
X117661000Y-62341000D01*
G37*
G36*
X132901000Y-62341000D02*
X131099000Y-62341000D01*
X131099000Y-60539000D01*
X132901000Y-60539000D01*
X132901000Y-62341000D01*
X132901000Y-62341000D01*
G37*
M02*
